<?xml version="1.0" encoding="UTF-8" standalone="no"?>
<!-- Created with Inkscape (http://www.inkscape.org/) -->

<svg
   width="37.999996mm"
   height="6mm"
   viewBox="0 0 37.999996 6"
   version="1.1"
   id="svg1"
   xmlns="http://www.w3.org/2000/svg"
   xmlns:svg="http://www.w3.org/2000/svg">
  <defs
     id="defs1" />
  <g
     id="layer1">
    <rect
       style="fill:#ffffff;stroke:none;stroke-width:2.282;stroke-linecap:round;stroke-linejoin:round"
       id="rect1"
       width="37.999996"
       height="6"
       x="0"
       y="0" />
    <path
       style="font-size:2.75px;font-family:OCR-B;-inkscape-font-specification:OCR-B;text-align:center;text-anchor:middle;stroke-width:0.1;stroke-linecap:round;stroke-linejoin:round"
       d="M 6.9794922,3.302124 7.2749023,2.2305908 7.5649414,3.302124 Z M 6.3967285,4.303833 H 6.7055664 L 6.8989258,3.6270752 h 0.717041 L 7.7932129,4.303833 H 8.1315918 L 7.5166016,1.8841553 H 7.0654297 Z M 9.1333008,2.9127197 V 2.2628174 H 9.659668 q 0.171875,0 0.3007812,0.080566 0.1503908,0.093994 0.1503908,0.230957 v 0.013428 q 0,0.1665039 -0.1235353,0.2416992 -0.1396484,0.083252 -0.3276367,0.083252 z m 0,1.0795899 V 3.2242432 H 9.659668 q 0.2175293,0 0.349121,0.118164 0.134277,0.112793 0.134277,0.2954102 0,0.1826172 -0.1557613,0.2739258 -0.1289063,0.080566 -0.3276367,0.080566 z M 8.800293,4.303833 h 0.859375 q 0.373291,0 0.636475,-0.2175293 0.187988,-0.1530762 0.190673,-0.4699707 0,-0.2416992 -0.107421,-0.3652344 -0.06445,-0.083252 -0.166504,-0.1450195 l -0.05908,-0.026855 0.06445,-0.040283 q 0.07788,-0.056396 0.134277,-0.1262207 0.09668,-0.1127929 0.09668,-0.3598633 0,-0.2524414 -0.182617,-0.4135742 Q 10.054443,1.9512939 9.659668,1.9512939 H 8.800293 Z m 3.587891,-0.5478516 -0.0054,0.04834 q -0.01343,0.080566 -0.04834,0.1208496 -0.08057,0.088623 -0.225586,0.088623 -0.16919,0 -0.29541,-0.1987304 -0.134278,-0.2094727 -0.14502,-0.7116699 v -0.056396 q 0,-0.4511719 0.12085,-0.657959 0.120849,-0.1933594 0.31958,-0.1933594 0.169189,0 0.220215,0.064453 0.05908,0.067139 0.06982,0.112793 l 0.0054,0.056396 h 0.306152 q 0,-0.2175293 -0.212158,-0.4296875 -0.112793,-0.112793 -0.370605,-0.112793 -0.233643,0 -0.418946,0.1369629 -0.187988,0.142334 -0.273926,0.3786621 -0.104736,0.3007813 -0.104736,0.7009278 0,0.4001464 0.107422,0.7036132 0.09399,0.2578125 0.279297,0.3947754 0.163818,0.1208496 0.370605,0.1208496 h 0.04028 Q 12.393555,4.3065186 12.554688,4.1534424 12.71582,3.9949951 12.71582,3.7559814 Z M 14.55542,4.303833 h 0.370605 V 1.7203369 H 14.550049 L 13.937744,2.2198486 V 2.6871338 L 14.55542,2.1553955 Z m 1.407226,0.00269 H 17.47998 V 3.9842529 h -1.138671 q 0.0027,-0.1745605 0.07251,-0.3410644 0.07788,-0.1772461 0.469971,-0.4162598 0.244385,-0.1477051 0.451172,-0.3625488 0.185303,-0.1879883 0.185303,-0.4726563 0,-0.3330078 -0.220215,-0.5209961 -0.220215,-0.1906738 -0.547852,-0.1906738 -0.365234,0.00269 -0.749267,0.1933594 -0.0027,0.045654 -0.0027,0.1665039 0,0.1396484 0.0027,0.2229004 0,-0.00269 0.177246,-0.1074219 0.260498,-0.1530762 0.572021,-0.1530762 0.128907,0 0.228272,0.061768 0.147705,0.085937 0.17456,0.1933594 0.0188,0.07251 0.0188,0.1396484 0,0.1020508 -0.04834,0.1691895 -0.128906,0.1906738 -0.486084,0.4189453 -0.451172,0.2900391 -0.588134,0.5827637 -0.08862,0.1557617 -0.08862,0.7385254 z M 19.206787,2.7032471 19.83252,2.069458 V 1.7069092 h -1.522706 v 0.3222656 h 1.119873 l -0.698242,0.7062988 v 0.2658692 h 0.351807 q 0.249756,0 0.389404,0.1530761 0.128906,0.1342774 0.128906,0.3410645 v 0.016113 q 0,0.1611328 -0.145019,0.2980957 -0.158447,0.1557617 -0.421631,0.1826172 -0.08057,0.00537 -0.118164,0.00537 -0.212158,0 -0.389404,-0.075195 l -0.21753,-0.112793 v 0.3544922 q 0.324952,0.1638183 0.655274,0.1638183 0.0376,0 0.118164,-0.00537 0.384033,-0.034912 0.63916,-0.290039 0.198731,-0.1987305 0.198731,-0.5397949 v -0.00806 q 0,-0.3383789 -0.255127,-0.5854492 -0.12085,-0.1262207 -0.316895,-0.1691895 z m 1.8396,0.7116699 0.773437,-1.6999512 h -0.338379 l -0.797607,1.6838379 v 0.3383789 h 1.00708 v 0.5908203 h 0.322266 V 3.7371826 h 0.314209 V 3.414917 H 22.013184 V 2.8912354 H 21.690918 V 3.414917 Z m 2.075927,-1.7026367 -0.08325,1.1789551 q 0.05371,-0.00537 0.136963,-0.013428 0.08594,-0.010742 0.110108,-0.013428 0.110107,-0.00806 0.182617,-0.00806 0.303467,0 0.478027,0.1342774 0.171875,0.1315918 0.171875,0.3652344 0,0.3061523 -0.249756,0.4753418 -0.252441,0.1665039 -0.700927,0.1665039 h -0.08325 q -0.01074,0 -0.02954,0 -0.01611,-0.00269 -0.02417,-0.00537 v 0.31958 h 0.09936 q 0.636475,0 0.996338,-0.2497558 0.359863,-0.2497559 0.359863,-0.6848145 0,-0.3652343 -0.252441,-0.5988769 Q 23.981689,2.5501709 23.5896,2.5501709 h -0.110108 q -0.04565,0 -0.06714,0.00269 l 0.02954,-0.5317382 h 0.966796 V 1.7122803 Z m 2.897706,1.2595215 q 0.255126,0 0.39746,0.1826171 0.110108,0.1477051 0.123536,0.3303223 v 0.029541 q 0,0.171875 -0.112793,0.314209 -0.155762,0.1960449 -0.408203,0.1960449 -0.212159,0 -0.351807,-0.1396484 -0.158447,-0.1638184 -0.163818,-0.3920898 v -0.00806 q 0,-0.2255859 0.163818,-0.3867187 0.126221,-0.1262207 0.351807,-0.1262207 z M 25.794434,2.6790771 26.178467,2.1956787 26.632324,1.7069092 h -0.451172 q -0.499511,0.4833984 -0.741211,0.8996582 -0.276611,0.4995117 -0.281982,0.8217773 0,0.456543 0.284668,0.7143555 0.190674,0.1879883 0.582764,0.1879883 0.36792,0 0.647216,-0.2792969 0.190674,-0.1960449 0.198731,-0.5666504 0,-0.314209 -0.182617,-0.5371094 -0.204102,-0.2443847 -0.555909,-0.2927246 -0.05908,-0.00806 -0.118164,-0.00806 -0.115478,0 -0.220214,0.032227 z M 28.82373,2.0291748 q -0.0027,0.018799 -0.04834,0.1289063 -0.01343,0.032227 -0.443116,0.5236816 -0.209472,0.2336426 -0.354492,0.7250977 -0.04297,0.1557617 -0.0564,0.8942871 h 0.330322 l 0.01611,-0.4833985 q 0.04834,-0.4216308 0.09668,-0.5290527 0.169189,-0.3894043 0.418945,-0.6391602 0.394776,-0.3947754 0.427002,-0.7895507 0.0081,-0.1047364 0.0081,-0.1530762 h -1.659668 v 0.3222656 z m 1.925538,0.6472168 Q 30.550537,2.5823975 30.48877,2.5206299 30.384033,2.4158936 30.370605,2.2869873 v -0.029541 q 0,-0.1181641 0.0752,-0.1853027 0.107422,-0.083252 0.303467,-0.083252 0.19873,0 0.292724,0.083252 0.09399,0.085937 0.09399,0.2067871 v 0.00806 q -0.0054,0.1101074 -0.112793,0.2175293 -0.06177,0.061768 -0.273925,0.171875 z m 0,1.3347168 q -0.295411,-0.00269 -0.410889,-0.1369629 -0.102051,-0.1181641 -0.102051,-0.2551269 0,-0.021484 0.0054,-0.059082 0.02417,-0.1638183 0.198731,-0.34375 0.09131,-0.09668 0.308838,-0.1799316 0.255127,0.09668 0.378662,0.2363281 0.134277,0.1503906 0.134277,0.3276367 v 0.00806 q -0.0027,0.1933593 -0.118164,0.2819824 -0.158447,0.1208496 -0.384033,0.1208496 z m -0.308838,-1.1655273 -0.112793,0.07251 q -0.0752,0.018799 -0.2417,0.1987305 -0.206787,0.2121582 -0.206787,0.4914551 0,0.3276367 0.158448,0.486084 0.239013,0.2390136 0.71167,0.2390136 0.478027,0 0.725097,-0.2873535 0.128906,-0.1503906 0.128906,-0.4350586 0,-0.2578125 -0.161132,-0.4538574 -0.14502,-0.1772461 -0.303467,-0.2578125 l -0.08325,-0.053711 0.06714,-0.051025 q 0.255127,-0.1799317 0.316894,-0.3383789 0.04028,-0.1208497 0.04028,-0.2282715 0,-0.1691895 -0.104736,-0.3115235 Q 31.181641,1.666626 30.749268,1.666626 h -0.03223 q -0.252441,0 -0.418945,0.083252 -0.185303,0.088623 -0.257813,0.3464356 -0.02148,0.077881 -0.02148,0.1477051 0,0.147705 0.08594,0.3034668 0.06714,0.1208496 0.228272,0.2229003 z"
       id="text1"
       aria-label="ABC12345678" />
  </g>
</svg>
