<?xml version="1.0" encoding="UTF-8" standalone="no"?>
<!-- Created with Inkscape (http://www.inkscape.org/) -->

<svg
   width="33mm"
   height="35mm"
   viewBox="0 0 33 35"
   version="1.1"
   id="svg1"
   inkscape:version="1.4 (e7c3feb, 2024-10-09)"
   sodipodi:docname="R4.svg"
   xml:space="preserve"
   xmlns:inkscape="http://www.inkscape.org/namespaces/inkscape"
   xmlns:sodipodi="http://sodipodi.sourceforge.net/DTD/sodipodi-0.dtd"
   xmlns:xlink="http://www.w3.org/1999/xlink"
   xmlns="http://www.w3.org/2000/svg"
   xmlns:svg="http://www.w3.org/2000/svg"><sodipodi:namedview
     id="namedview1"
     pagecolor="#ffffff"
     bordercolor="#ed0000"
     borderopacity="1"
     inkscape:showpageshadow="0"
     inkscape:pageopacity="0"
     inkscape:pagecheckerboard="0"
     inkscape:deskcolor="#d1d1d1"
     inkscape:document-units="mm"
     showgrid="false"
     inkscape:zoom="4"
     inkscape:cx="80.375001"
     inkscape:cy="67.500001"
     inkscape:window-width="1680"
     inkscape:window-height="978"
     inkscape:window-x="0"
     inkscape:window-y="0"
     inkscape:window-maximized="1"
     inkscape:current-layer="layer1"><inkscape:grid
       id="grid2"
       units="mm"
       originx="0"
       originy="0"
       spacingx="1"
       spacingy="0.99999999"
       empcolor="#0099e5"
       empopacity="0.30196078"
       color="#0099e5"
       opacity="0.14901961"
       empspacing="3"
       enabled="true"
       visible="false" /></sodipodi:namedview><defs
     id="defs1"><linearGradient
       id="linearGradient3"
       inkscape:collect="always"><stop
         style="stop-color:#000000;stop-opacity:1;"
         offset="0"
         id="stop1" /><stop
         style="stop-color:#b2b2b2;stop-opacity:1;"
         offset="1"
         id="stop2" /></linearGradient><linearGradient
       inkscape:collect="always"
       xlink:href="#linearGradient3"
       id="linearGradient5"
       x1="14"
       y1="20"
       x2="14"
       y2="30"
       gradientUnits="userSpaceOnUse" /><rect
       x="7.5590549"
       y="71.811024"
       width="109.60629"
       height="24.368109"
       id="rect15" /></defs><g
     inkscape:label="Layer 1"
     inkscape:groupmode="layer"
     id="layer1"><path
       d="M 0.99993896,0 C 0.44770186,3.3704849e-5 3.3671935e-5,0.4477019 0,0.99993896 V 30.000236 c 1.6853923e-4,2.761387 2.2388244,4.999812 5.0002116,4.999695 H 32.000114 c 0.552237,-3.4e-5 0.999905,-0.447702 0.999939,-0.999939 V 0.99993896 C 33.000019,0.4477019 32.552351,3.3704849e-5 32.000114,0 Z"
       style="fill:#333333;stroke-width:0.264583"
       id="path7"
       inkscape:label="cart" /><path
       d="M 3.9997559,0.99993896 C 3.4475188,0.99997267 2.9998506,1.4476409 2.9998169,1.9998779 V 28.500069 l 3.0003337,2.999817 H 29.000297 c 0.552237,-3.4e-5 0.999905,-0.447702 0.999939,-0.999939 V 1.9998779 C 30.000202,1.447439 29.552219,0.9996872 28.99978,0.99993896 Z"
       style="fill:#4d4d4d;stroke-width:0.266779"
       id="path17"
       inkscape:label="margin" /><path
       d="M 5.0002116,1.9998779 C 4.4477727,1.9996262 3.9997895,2.447378 3.9997559,2.9998169 V 27.999841 l 2.0003947,2.000395 H 27.999841 c 0.552439,-3.4e-5 1.000191,-0.448017 0.999939,-1.000456 V 2.9998169 c -3.3e-5,-0.5522371 -0.447702,-0.9999053 -0.999939,-0.999939 z"
       style="display:none;fill:#ffffff;stroke-width:0.264583"
       id="path1"
       inkscape:label="sticker"
       sodipodi:insensitive="true" /><g
       inkscape:label="R4-sticker"
       id="layer1-5"
       transform="matrix(0.89287094,0,0,0.93333005,3.9997559,1.9998779)"><path
         d="M 0.99993896,0 C 0.44770189,3.3704848e-5 3.3704848e-5,0.44770189 0,0.99993896 V 27.999841 l 1.9998779,2.000395 H 26.999902 c 0.552439,-3.4e-5 1.000191,-0.448017 0.999939,-1.000456 V 0.99993896 C 27.999808,0.44770189 27.552139,3.3704848e-5 26.999902,0 Z"
         style="display:inline;fill:url(#linearGradient5);stroke-width:0.264583"
         id="path4"
         inkscape:label="Background" /><path
         d="M 8.6788898,16.116505 V 15.518522 H 6.9543208 5.2297539 L 4.4934697,14.615445 3.7571885,13.712368 3.6381287,13.712711 c -0.2544452,7.1e-4 -0.2378285,-0.03451 -0.2378285,0.504079 0,0.646714 -0.0062,0.637131 0.4222875,0.648823 l 0.2243398,0.0061 0.0074,0.323399 0.0074,0.3234 H 2.7808254 1.5 v -0.329489 -0.329501 h 0.2353769 c 0.1294594,0 0.2546041,-0.0068 0.2781033,-0.01516 0.1170505,-0.04155 0.1199544,-0.07799 0.1198513,-1.503003 -9.2e-5,-1.280916 -0.0026,-1.353585 -0.050022,-1.425442 C 2.0271835,11.830787 1.9432021,11.8093 1.6649588,11.808846 l -0.1649555,-2.69e-4 v -0.366112 -0.366112 h 1.7034572 c 1.4517459,0 1.7335187,0.0057 1.9068896,0.03869 0.5048598,0.09602 0.9663747,0.454301 1.1428095,0.887178 0.048281,0.11847 0.054135,0.176537 0.045689,0.453739 -0.00891,0.291258 -0.0161,0.330099 -0.086266,0.463742 -0.1632503,0.310962 -0.5914026,0.617717 -0.9713809,0.695956 -0.083464,0.01718 -0.1517599,0.03905 -0.1517599,0.0486 0,0.04593 0.5574107,0.538052 0.6862169,0.605844 0.13028,0.06857 0.1675891,0.07642 0.3639258,0.07663 0.2172943,2.27e-4 0.2194467,-3.92e-4 0.3202097,-0.0913 0.114718,-0.103504 0.5086503,-0.509879 2.2181445,-2.288201 0.6581317,-0.68463 1.2126253,-1.248333 1.2322073,-1.252673 0.02963,-0.0066 0.0356,0.297347 0.0356,1.812255 v 1.820147 h 0.277125 0.277126 v 0.584926 0.584925 l -0.270528,0.0069 -0.270526,0.0069 -0.0071,0.591882 -0.0071,0.59188 H 9.3117763 8.6788148 Z m 0,-2.135158 V 13.5181 L 8.435877,13.767781 C 8.3022187,13.905106 8.0990276,14.113566 7.9843416,14.231027 L 7.775816,14.444592 H 8.2273534 8.6788898 Z M 4.4129027,12.867645 c 0.1605446,-0.05059 0.2933523,-0.167393 0.3303122,-0.29051 0.044319,-0.147616 0.035873,-0.319709 -0.020703,-0.421716 -0.1160099,-0.2092 -0.2729692,-0.277141 -0.675587,-0.292427 -0.3282548,-0.01246 -0.4878388,0.01619 -0.5836797,0.104828 -0.06169,0.05704 -0.062951,0.06705 -0.062951,0.498657 v 0.440444 h 0.4439795 c 0.3388007,0 0.4735046,-0.0093 0.568623,-0.03927 z"
         style="display:inline;fill:#ffffff;fill-opacity:1;stroke-width:0.254601"
         id="path1-3"
         inkscape:label="R4 logo" /><path
         style="fill:#e6e6e6;stroke-width:0.283742"
         d="m 23.59857,29.976085 c -0.04018,-0.01815 -0.111676,-0.07605 -0.158886,-0.12868 -0.29789,-0.332071 0.262125,-1.055647 0.822998,-1.063356 0.161463,-0.0021 0.205752,0.01372 0.301331,0.108459 0.200338,0.198593 0.147158,0.469831 -0.14983,0.764188 -0.261368,0.259062 -0.629789,0.403329 -0.815613,0.319389 z m 1.709843,-0.04476 c -0.224059,-0.06785 -0.319988,-0.29953 -0.228501,-0.551822 0.05904,-0.162813 0.360073,-0.463941 0.564062,-0.564241 0.298157,-0.146615 0.573994,-0.0986 0.668603,0.116384 0.09782,0.222299 0.02005,0.457698 -0.230146,0.696459 -0.272753,0.260299 -0.553103,0.370125 -0.774018,0.30322 z m 1.572966,-0.01257 c -0.209505,-0.09524 -0.297049,-0.352508 -0.191611,-0.563105 0.254394,-0.50813 0.835877,-0.78459 1.123406,-0.534109 0.299333,0.260775 0.09874,0.740115 -0.423818,1.01276 -0.237468,0.123896 -0.372,0.146264 -0.507977,0.08446 z m -4.863909,-0.06406 c -0.138045,-0.04165 -0.263073,-0.224319 -0.263279,-0.384634 -5.87e-4,-0.492338 0.871495,-1.025229 1.217169,-0.743711 0.102277,0.0833 0.15655,0.278842 0.119642,0.431102 -0.01239,0.05108 -0.113565,0.194705 -0.224834,0.319136 -0.286468,0.320352 -0.590805,0.455937 -0.848698,0.378107 z m 1.234111,-1.650009 c -0.175963,-0.091 -0.252589,-0.311948 -0.186904,-0.538928 0.05827,-0.201366 0.305582,-0.482138 0.506076,-0.574545 0.12801,-0.059 0.17948,-0.06448 0.297351,-0.03161 0.381493,0.106354 0.353191,0.650311 -0.05305,1.019593 -0.223553,0.203222 -0.356117,0.232747 -0.563475,0.125497 z m 1.507905,0.03876 c -0.04451,-0.0084 -0.122586,-0.0665 -0.173491,-0.12914 -0.234493,-0.288527 8.4e-5,-0.847974 0.434325,-1.035824 0.301423,-0.130392 0.568867,0.05467 0.568867,0.393646 0,0.156568 -0.02139,0.206096 -0.173497,0.40152 -0.230567,0.296252 -0.435034,0.411479 -0.656204,0.369798 z m 1.264986,-0.115549 c -0.08774,-0.08114 -0.11819,-0.146072 -0.133195,-0.283896 -0.0166,-0.152547 -0.0046,-0.200851 0.08205,-0.33032 0.357763,-0.534489 0.81609,-0.625707 0.991211,-0.197276 0.07741,0.189388 -0.0059,0.448086 -0.219769,0.68359 -0.238462,0.262404 -0.520716,0.312527 -0.720295,0.127902 z m 1.522121,-0.05549 c -0.09779,-0.156532 -0.10482,-0.277215 -0.02675,-0.459882 0.06677,-0.156255 0.08617,-0.173407 0.194901,-0.172324 0.198251,0.0019 0.248601,0.06903 0.248601,0.331105 0,0.202819 -0.01116,0.238528 -0.09623,0.307813 -0.126083,0.102678 -0.253822,0.100004 -0.320487,-0.0067 z M 24.03521,26.287338 c -0.125971,-0.130421 -0.120513,-0.334289 0.01477,-0.552095 0.157731,-0.253931 0.270635,-0.344461 0.456658,-0.36617 0.142419,-0.01662 0.176751,-0.0058 0.262388,0.08288 0.0858,0.08884 0.09612,0.124056 0.07994,0.272756 -0.01151,0.105689 -0.0601,0.230675 -0.127551,0.328013 -0.222988,0.321833 -0.507881,0.419239 -0.686208,0.234609 z m 1.278378,0 c -0.132037,-0.136702 -0.121686,-0.340881 0.02906,-0.573125 0.2201,-0.339111 0.491231,-0.445518 0.668242,-0.262254 0.132996,0.137692 0.123427,0.364886 -0.02484,0.589838 -0.218729,0.331854 -0.492526,0.43183 -0.672455,0.245541 z m 1.332015,-0.0177 c -0.119936,-0.124177 -0.131154,-0.209618 -0.05295,-0.403397 0.190225,-0.471353 0.646878,-0.67145 0.805877,-0.35312 0.08311,0.166392 0.06454,0.311969 -0.06526,0.511979 -0.229287,0.353262 -0.492304,0.446796 -0.687657,0.244538 z m 0.485554,-1.612367 c -0.266515,-0.19327 -0.245862,-0.707771 0.03554,-0.885403 0.150168,-0.09479 0.215631,-0.09563 0.38717,-0.005 0.212583,0.11233 0.271366,0.201876 0.274516,0.418168 0.0021,0.161326 -0.0137,0.208567 -0.10464,0.307576 -0.202322,0.220321 -0.428976,0.283295 -0.592587,0.164649 z m -2.573346,-0.189254 c -0.13226,-0.0743 -0.210478,-0.239241 -0.210478,-0.443843 0,-0.227132 0.120365,-0.406715 0.321126,-0.479121 0.14076,-0.05076 0.165052,-0.04974 0.27531,0.01174 0.159669,0.08903 0.24973,0.254878 0.24973,0.459901 0,0.384916 -0.333017,0.621346 -0.635688,0.451316 z m 1.272984,-0.01979 c -0.19558,-0.159279 -0.254202,-0.406796 -0.154723,-0.653296 0.170263,-0.421892 0.695175,-0.36736 0.792384,0.08231 0.0907,0.419608 -0.344748,0.809528 -0.637661,0.570979 z m 1.340433,-1.58303 c -0.387386,-0.244551 -0.292803,-0.947271 0.127496,-0.947271 0.152644,0 0.407643,0.158742 0.480065,0.298852 0.117784,0.227851 -0.0056,0.531982 -0.268004,0.660929 -0.159399,0.07831 -0.197941,0.07689 -0.339557,-0.01252 z m -1.253316,0.0091 c -0.184094,-0.06967 -0.328725,-0.314408 -0.328725,-0.556244 0,-0.232321 0.165597,-0.438071 0.352583,-0.438071 0.269205,0 0.487491,0.245693 0.487491,0.548697 0,0.313412 -0.260605,0.540517 -0.511349,0.445618 z m -1.263905,-0.101445 c -0.350223,-0.162396 -0.406556,-0.740911 -0.08871,-0.911078 0.185026,-0.09907 0.322199,-0.07426 0.47729,0.08631 0.221978,0.229824 0.238506,0.505049 0.04362,0.726468 -0.118525,0.134661 -0.276353,0.170557 -0.43219,0.0983 z m -0.299508,-1.818853 c -0.210752,-0.183602 -0.28631,-0.508039 -0.171735,-0.737425 0.169239,-0.338837 0.548796,-0.290533 0.716232,0.09115 0.118702,0.270588 0.07719,0.538451 -0.107423,0.693106 -0.09669,0.08099 -0.317509,0.05734 -0.437074,-0.04684 z m 1.150288,-0.05422 c -0.150429,-0.172388 -0.203378,-0.411618 -0.137113,-0.619494 0.05338,-0.167474 0.144156,-0.251104 0.301184,-0.277486 0.321753,-0.05407 0.590045,0.502592 0.413037,0.856976 -0.06787,0.135881 -0.157448,0.188321 -0.321697,0.188321 -0.10021,0 -0.152457,-0.03033 -0.255411,-0.148317 z m 1.314216,0.02448 c -0.336289,-0.328365 -0.206609,-0.93501 0.199875,-0.93501 0.218027,0 0.439173,0.296726 0.439173,0.589271 0,0.27853 -0.151518,0.466337 -0.377869,0.468362 -0.102577,9.29e-4 -0.164377,-0.0281 -0.261179,-0.122623 z m 0.155456,-1.501392 c -0.291893,-0.159762 -0.57303,-0.610612 -0.529739,-0.849524 0.04229,-0.233398 0.276106,-0.367133 0.50508,-0.288895 0.198826,0.06794 0.544625,0.479319 0.614284,0.730783 0.09999,0.360961 -0.242409,0.597679 -0.589625,0.407636 z m -1.549638,-0.05815 c -0.153884,-0.08512 -0.374048,-0.309766 -0.497717,-0.507883 -0.190462,-0.305115 -0.127239,-0.639987 0.135279,-0.716553 0.338143,-0.09863 0.847482,0.385459 0.883896,0.840063 0.01367,0.170933 0.003,0.216366 -0.07006,0.303707 -0.108671,0.12955 -0.300903,0.163901 -0.451404,0.08068 z m -1.516793,-0.118516 c -0.286552,-0.197898 -0.545602,-0.577014 -0.546516,-0.799813 -5.86e-4,-0.117275 0.09395,-0.298988 0.180247,-0.346794 0.09935,-0.05504 0.28039,-0.04829 0.398377,0.01488 0.143504,0.07683 0.400716,0.377107 0.482209,0.56294 0.102669,0.234129 0.0921,0.388322 -0.03569,0.520614 -0.124791,0.129201 -0.331228,0.149976 -0.478642,0.04818 z M 26.184574,17.71708 C 25.920685,17.636349 25.51,17.09152 25.502941,16.812799 c -0.0076,-0.298604 0.304778,-0.444284 0.579993,-0.270517 0.141776,0.08952 0.365212,0.333947 0.476221,0.52098 0.225652,0.38018 0.0027,0.769244 -0.374581,0.653814 z m 1.281997,-0.103721 c -0.289304,-0.217225 -0.523328,-0.576921 -0.525156,-0.807168 -0.0011,-0.159399 0.162977,-0.333788 0.314363,-0.333788 0.360677,0 0.744063,0.429324 0.744063,0.833213 0,0.194242 -0.04611,0.284887 -0.181895,0.357586 -0.147029,0.07872 -0.187864,0.07293 -0.351375,-0.04985 z m -2.772249,-0.0069 c -0.200541,-0.04569 -0.399624,-0.178316 -0.609102,-0.405804 -0.239083,-0.259636 -0.291307,-0.420849 -0.197305,-0.609052 0.158004,-0.31634 0.554794,-0.250978 0.964452,0.158873 0.228191,0.228295 0.29882,0.352533 0.297706,0.523667 -0.0013,0.235511 -0.210815,0.388111 -0.455751,0.332316 z m -1.539221,-0.0408 c -0.326961,-0.09809 -0.707069,-0.521542 -0.707069,-0.787698 0,-0.242402 0.190418,-0.37862 0.456915,-0.326859 0.15539,0.03018 0.550647,0.332739 0.665047,0.509075 0.145919,0.224914 0.09135,0.490322 -0.124253,0.604484 -0.09162,0.0485 -0.131809,0.04864 -0.29064,9.85e-4 z m 3.942584,-1.736971 c -0.196328,-0.103374 -0.472816,-0.355043 -0.54181,-0.49317 -0.08542,-0.171033 -0.06776,-0.329019 0.05051,-0.451462 0.232371,-0.240582 0.597225,-0.156155 1.007591,0.233155 l 0.243241,0.230762 -0.01087,0.189702 c -0.0088,0.155185 -0.02887,0.203569 -0.109804,0.26592 -0.14864,0.114519 -0.446785,0.126228 -0.638863,0.02509 z m -5.256628,-0.118147 c -0.263767,-0.107724 -0.609776,-0.408412 -0.705464,-0.613062 -0.09159,-0.195888 -0.07594,-0.315425 0.05841,-0.446021 0.197239,-0.191734 0.60834,-0.0746 0.983229,0.280126 0.334347,0.316372 0.396108,0.547217 0.200563,0.749671 -0.128594,0.133135 -0.264326,0.140543 -0.536734,0.02929 z m 1.730579,0.02402 c -0.296346,-0.1127 -0.691455,-0.476766 -0.792397,-0.730141 -0.04332,-0.108693 -0.04237,-0.142262 0.0069,-0.249223 0.163136,-0.35418 0.721535,-0.220689 1.174618,0.280807 0.211976,0.234628 0.255939,0.34694 0.202012,0.516105 -0.06989,0.219281 -0.304156,0.291587 -0.591125,0.182452 z m 1.53943,0.0054 c -0.283972,-0.105093 -0.617632,-0.480462 -0.617632,-0.694834 0,-0.119388 0.09392,-0.300823 0.180603,-0.348846 0.117871,-0.06532 0.395213,-0.04502 0.557732,0.04084 0.233519,0.123341 0.530004,0.45034 0.560396,0.618071 0.05923,0.326827 -0.295778,0.527377 -0.681099,0.384777 z M 22.101042,14.06177 c -0.509969,-0.188991 -0.84761,-0.628693 -0.703314,-0.915916 0.196947,-0.392013 0.870989,-0.342978 1.293129,0.09408 0.13479,0.139552 0.197789,0.238359 0.215975,0.33873 0.07165,0.395469 -0.353864,0.650588 -0.80579,0.48311 z m 2.054866,-0.02547 c -0.355869,-0.131499 -0.729622,-0.524288 -0.758626,-0.797265 -0.019,-0.178822 0.0077,-0.260735 0.124584,-0.381714 0.108835,-0.112678 0.147264,-0.128573 0.310861,-0.128573 0.220542,0 0.440945,0.09764 0.661372,0.292978 0.254622,0.22565 0.364584,0.410189 0.364584,0.611856 0,0.370872 -0.309298,0.548112 -0.702775,0.402718 z m -3.72251,-0.0738 c -0.578685,-0.246433 -0.995537,-0.675242 -0.92785,-0.954458 0.06679,-0.275498 0.363417,-0.316997 0.781844,-0.109386 0.278155,0.138011 0.663111,0.479307 0.76051,0.67425 0.108187,0.216547 -0.05396,0.480384 -0.294081,0.478491 -0.06258,-5.19e-4 -0.206771,-0.04051 -0.320423,-0.0889 z m 5.429726,-0.08426 c -0.334868,-0.176885 -0.53925,-0.429851 -0.536134,-0.663578 0.0027,-0.206612 0.08559,-0.323243 0.265155,-0.373301 0.272784,-0.07604 0.569904,0.05823 0.854819,0.386323 0.136865,0.157604 0.164921,0.215375 0.164921,0.339573 0,0.189 -0.04701,0.280071 -0.181891,0.352279 -0.155575,0.08329 -0.35907,0.06848 -0.56687,-0.0413 z m 1.614659,-0.207516 c -0.257758,-0.219976 -0.314559,-0.472403 -0.151455,-0.673089 0.188313,-0.231706 0.457433,-0.181 0.602568,0.113529 0.101724,0.206448 0.09285,0.41675 -0.02359,0.560063 -0.123049,0.151397 -0.249681,0.151249 -0.427498,-5.21e-4 z M 27.285727,12.39049 c -0.257933,-0.09507 -0.396515,-0.173805 -0.547375,-0.310941 -0.294878,-0.268052 -0.318664,-0.589069 -0.05414,-0.73069 0.150966,-0.08083 0.345195,-0.06979 0.635028,0.03611 0.334121,0.122069 0.517497,0.25344 0.60683,0.434736 0.110382,0.224006 0.09677,0.363388 -0.05042,0.515755 -0.145888,0.151047 -0.292394,0.164716 -0.589924,0.05504 z m -8.691091,-0.261736 c -0.160711,-0.05759 -0.366166,-0.144255 -0.456565,-0.192592 -0.204049,-0.109105 -0.563002,-0.392 -0.637938,-0.502766 -0.136384,-0.201599 -0.01703,-0.491905 0.21855,-0.531483 0.284773,-0.04784 0.956496,0.207766 1.360798,0.517822 0.376694,0.288884 0.459218,0.507587 0.266728,0.706877 -0.0893,0.09246 -0.135616,0.110237 -0.283069,0.108693 -0.09697,-9.98e-4 -0.307795,-0.04897 -0.468504,-0.106551 z m 2.118452,0.05529 c -0.338186,-0.111202 -0.736631,-0.379316 -0.866363,-0.582981 -0.121768,-0.191158 -0.05907,-0.425004 0.142592,-0.531776 0.218589,-0.115737 0.750051,0.0146 1.116057,0.273684 0.345017,0.244237 0.4681,0.489158 0.355397,0.707189 -0.09042,0.174908 -0.435171,0.236643 -0.747683,0.133884 z m 4.285718,-0.01744 c -0.349402,-0.11911 -0.650129,-0.335485 -0.788254,-0.567156 -0.108412,-0.181831 -0.103647,-0.281841 0.02025,-0.425403 0.146483,-0.169737 0.372365,-0.187511 0.731026,-0.05753 0.476739,0.172777 0.846512,0.511728 0.846512,0.775949 0,0.04332 -0.04655,0.13271 -0.103438,0.198632 -0.08781,0.101758 -0.133336,0.121835 -0.301331,0.132942 -0.126053,0.0083 -0.272995,-0.01252 -0.404759,-0.05744 z m -1.9926,-0.02402 c -0.511084,-0.146241 -1.033004,-0.557663 -1.033004,-0.814302 0,-0.08106 0.03481,-0.154021 0.111261,-0.233164 0.109394,-0.113262 0.11627,-0.114903 0.410904,-0.09811 0.379846,0.02166 0.76126,0.194691 1.021021,0.463217 0.152777,0.157928 0.173494,0.198605 0.173494,0.340621 0,0.12383 -0.02237,0.184421 -0.09629,0.26097 -0.05295,0.05483 -0.116653,0.0997 -0.141535,0.0997 -0.02487,0 -0.0925,0.008 -0.150252,0.0178 -0.05776,0.0098 -0.190773,-0.0067 -0.295597,-0.03674 z m 3.38653,-1.6087 c -0.257279,-0.09537 -0.658841,-0.378494 -0.790725,-0.5575101 -0.142818,-0.1938591 -0.141448,-0.3974598 0.0035,-0.5265825 0.09471,-0.084336 0.131922,-0.092904 0.348583,-0.080228 0.304848,0.017832 0.624094,0.1752744 0.926031,0.4566838 0.190438,0.1774918 0.21558,0.2181638 0.232835,0.3766488 0.01748,0.160591 0.0086,0.188752 -0.09197,0.292925 -0.135586,0.140376 -0.321822,0.151658 -0.628288,0.03806 z M 18.799624,10.40179 C 18.403983,10.288098 17.912838,9.9472566 17.78986,9.7010394 17.70352,9.5281864 17.72313,9.407025 17.86048,9.2648307 c 0.122022,-0.1263295 0.12968,-0.1285728 0.438987,-0.1285728 0.52129,0 0.996514,0.2128384 1.350801,0.6049833 0.141487,0.1566035 0.167958,0.2096669 0.167958,0.3366768 0,0.104844 -0.02684,0.183096 -0.08813,0.256876 -0.08287,0.09978 -0.107366,0.106621 -0.41091,0.114823 -0.199823,0.0054 -0.397742,-0.01281 -0.519568,-0.04782 z m 2.643967,0.02136 C 21.060152,10.321981 20.5231,9.9837662 20.420861,9.7790729 c -0.1407,-0.2816998 0.0047,-0.5379559 0.330652,-0.5829898 0.375708,-0.051899 1.022608,0.2218288 1.323829,0.5601596 0.08309,0.093321 0.161174,0.2113896 0.173537,0.2623753 0.03025,0.124845 -0.06822,0.312504 -0.201427,0.383824 -0.112306,0.06013 -0.41511,0.07051 -0.603861,0.0207 z m 2.164408,-0.05491 c -0.31109,-0.113678 -0.566108,-0.30214 -0.658574,-0.4866982 -0.06505,-0.1298558 -0.06703,-0.1566283 -0.0209,-0.2836166 0.0658,-0.1811599 0.235677,-0.2724426 0.507143,-0.2725211 0.593832,-1.727e-4 1.276921,0.3963043 1.276921,0.7411469 0,0.290218 -0.151125,0.393647 -0.573454,0.392464 -0.205137,-5.73e-4 -0.353826,-0.02599 -0.531135,-0.09077 z m -7.27835,-0.09473 C 15.975037,10.146303 15.845526,10.079344 15.571672,9.8816123 15.22738,9.6330257 15.132797,9.3919677 15.300395,9.1902351 c 0.11864,-0.1427968 0.352816,-0.15995 0.772533,-0.056589 0.455697,0.1122228 0.824818,0.3050126 1.084418,0.5663831 0.257047,0.2588031 0.281954,0.3924028 0.106934,0.5736058 -0.09926,0.102774 -0.12556,0.110337 -0.374382,0.10769 -0.192384,-0.0021 -0.349883,-0.03236 -0.560249,-0.107818 z m 11.177099,-0.11332 c -0.0983,-0.06028 -0.109299,-0.08587 -0.106938,-0.2486581 0.0023,-0.1496242 0.02041,-0.1973057 0.104029,-0.2717537 0.06915,-0.061589 0.126367,-0.082854 0.179987,-0.066894 0.150345,0.04475 0.261276,0.1569511 0.296147,0.2995384 0.03264,0.1334434 0.02722,0.1498864 -0.08275,0.2516314 -0.133677,0.123654 -0.232795,0.132827 -0.39047,0.03614 z M 25.55266,8.6873027 c -0.700714,-0.2070772 -1.168802,-0.527364 -1.168802,-0.79975 0,-0.05984 0.03916,-0.1555639 0.08736,-0.2135966 0.07825,-0.094205 0.115681,-0.1066412 0.35912,-0.1193685 0.338843,-0.017719 0.639972,0.057851 1.034827,0.2596854 0.534745,0.2733367 0.713992,0.5789279 0.481044,0.8201057 -0.08176,0.084629 -0.135016,0.1028971 -0.326901,0.1120949 -0.143711,0.00688 -0.317822,-0.015187 -0.466656,-0.059171 z M 16.904732,8.6035102 C 16.19939,8.450155 15.623524,8.1323462 15.557502,7.860002 c -0.0307,-0.126606 0.05497,-0.3071814 0.176623,-0.3723115 0.371112,-0.19869 1.699463,0.1765872 2.037979,0.5757565 0.193119,0.2277212 0.127818,0.5032886 -0.137328,0.579529 -0.187872,0.05402 -0.337194,0.045947 -0.730044,-0.039466 z m 2.895232,0.00309 C 18.761162,8.3716808 18.224159,7.9429313 18.505282,7.5729147 18.626008,7.414013 18.814246,7.3827754 19.207359,7.4564061 c 0.639161,0.1197157 1.138501,0.3252715 1.403714,0.5778474 0.136922,0.1304004 0.175411,0.2522745 0.123935,0.3924522 -0.08623,0.2348118 -0.413657,0.2978064 -0.935044,0.1798975 z m 2.830692,-0.00156 C 22.289036,8.5137288 21.815952,8.2751552 21.635345,8.1031283 21.52669,7.9996316 21.498378,7.9450438 21.498378,7.8390478 c 0,-0.073488 0.01029,-0.1611617 0.02267,-0.1948298 0.130792,-0.352882 1.324346,-0.1212061 1.85175,0.3594364 0.142035,0.129442 0.170964,0.1780799 0.170964,0.2874336 0,0.3658117 -0.31458,0.4739769 -0.913124,0.3139668 z M 14.047264,8.5499653 C 13.547526,8.4451933 12.806033,8.1043136 12.564173,7.8681511 12.407408,7.7150762 12.396827,7.551615 12.534473,7.4091122 c 0.09191,-0.095166 0.10371,-0.097155 0.465694,-0.078525 0.838111,0.043136 2.03328,0.6276849 2.03328,0.9944632 0,0.052882 -0.04035,0.1379179 -0.08966,0.1889689 -0.08061,0.083463 -0.118352,0.092463 -0.374379,0.089267 -0.156601,-0.00192 -0.391567,-0.025954 -0.522143,-0.053326 z M 27.337526,8.4455406 c -0.601174,-0.3222034 -0.496865,-0.8597217 0.166835,-0.8597217 0.181195,0 0.213468,0.013071 0.329896,0.133615 0.119204,0.1234102 0.129056,0.1510373 0.129056,0.3617341 0,0.276683 -0.0409,0.3643654 -0.202653,0.4343336 -0.164075,0.070976 -0.158432,0.071908 -0.423134,-0.069961 z M 27.173929,7.0421721 C 26.883018,6.9302106 26.636084,6.7787488 26.541508,6.6542659 26.35845,6.4133207 26.520061,6.1034318 26.855954,6.0512802 c 0.266791,-0.041421 0.725112,0.00467 0.860517,0.08655 0.340027,0.2056043 0.379727,0.6697399 0.07827,0.9152325 -0.127029,0.103454 -0.333114,0.099839 -0.620823,-0.010888 z M 17.86997,6.8655231 C 17.212205,6.751223 16.519011,6.3957452 16.418117,6.1209984 c -0.05009,-0.1363601 0.04225,-0.3249644 0.19606,-0.4005322 0.246353,-0.1210319 0.828012,-0.074366 1.393896,0.1118269 0.600708,0.1976531 0.936833,0.4120443 0.990025,0.6314681 0.03466,0.1429322 -0.08384,0.3357274 -0.240903,0.3919748 -0.142069,0.050877 -0.620403,0.056154 -0.887225,0.00978 z m 3.317088,0.00468 C 20.704203,6.7903191 20.113392,6.5368902 19.954646,6.341568 19.769179,6.113364 19.860096,5.8147044 20.139481,5.7343671 c 0.24322,-0.069937 0.736849,-0.046852 1.107669,0.0518 0.660608,0.1757473 1.018253,0.4131846 1.018253,0.6760087 0,0.1963638 -0.02961,0.2486905 -0.188057,0.3323824 -0.16352,0.086372 -0.600885,0.1235367 -0.890288,0.075654 z m 3.306376,-0.0034 c -0.651522,-0.067563 -1.241853,-0.388271 -1.241853,-0.6746596 0,-0.2465829 0.214093,-0.3846333 0.639071,-0.4120837 0.740684,-0.047842 1.588958,0.3054265 1.588958,0.6617314 0,0.3218571 -0.384203,0.487437 -0.986176,0.4250119 z M 11.181638,6.7314553 C 10.626492,6.6257235 10.443919,6.5680903 10.043579,6.3722128 9.5662564,6.1386655 9.4054069,5.8723872 9.6003366,5.6384481 9.7466289,5.4628806 10.055131,5.4296915 10.616602,5.529116 c 0.701658,0.1242481 1.495009,0.4351112 1.707173,0.6689299 0.182821,0.2014797 0.07113,0.5023132 -0.215761,0.5811505 -0.228573,0.062811 -0.389455,0.054521 -0.926376,-0.047741 z M 14.406537,6.716652 C 13.946831,6.6364224 13.716707,6.562699 13.376414,6.3866372 13.04916,6.2173231 12.951512,6.1148731 12.951512,5.9408413 c 0,-0.2886897 0.245743,-0.3900924 0.8396,-0.3464498 0.540169,0.039697 0.994036,0.1631771 1.477087,0.4018608 0.276075,0.1364126 0.38617,0.262739 0.38617,0.4430968 0,0.3406285 -0.389289,0.4271397 -1.247832,0.2773029 z M 27.141504,5.40439 c -0.777821,-0.1827997 -1.40622,-0.5517493 -1.40622,-0.8256278 0,-0.1554125 0.174613,-0.3126142 0.418582,-0.3768462 0.279364,-0.073549 0.328287,-0.072454 0.847036,0.018934 0.729075,0.1284443 0.962411,0.3115373 0.962411,0.7551703 0,0.1738057 -0.01475,0.2123973 -0.124185,0.3257376 C 27.720861,5.4242081 27.703029,5.4301216 27.464747,5.425944 27.327139,5.423524 27.181677,5.413832 27.141504,5.40439 Z M 22.974582,5.1666399 c -0.08204,-0.018009 -0.279276,-0.077809 -0.438301,-0.1328886 -0.66763,-0.2312378 -0.912734,-0.5725171 -0.625072,-0.870341 0.154415,-0.1598721 0.4255,-0.246899 0.847284,-0.272005 0.528206,-0.03144 1.299005,0.1766721 1.588526,0.4288972 0.321358,0.2799567 0.253836,0.6064012 -0.164047,0.793154 -0.166919,0.074594 -0.953201,0.1092012 -1.20839,0.053183 z M 19.617336,5.0528082 C 19.070621,5.0011352 18.296317,4.7313274 18.127834,4.533788 17.942222,4.3161658 17.999969,4.0373588 18.255531,3.9172697 c 0.126837,-0.059601 0.239507,-0.073641 0.594781,-0.074119 0.367739,-5.19e-4 0.50298,0.017029 0.840076,0.1088545 0.51621,0.1406164 0.770788,0.2588187 0.961091,0.4462475 0.113674,0.1119575 0.152922,0.1799212 0.152922,0.2648138 0,0.1474177 -0.115696,0.2980125 -0.265377,0.345423 -0.175569,0.05561 -0.590914,0.075583 -0.921688,0.044319 z M 15.703564,5.0122594 C 15.237236,4.9493312 14.534371,4.6953576 14.288387,4.5008986 14.006504,4.2780606 14.026674,3.986338 14.333181,3.8530768 c 0.107445,-0.046716 0.228585,-0.054091 0.608954,-0.037076 1.028964,0.04603 2.100193,0.4933181 2.100193,0.8769272 0,0.1270516 -0.132766,0.2762212 -0.284733,0.3199191 -0.154816,0.044517 -0.722114,0.044201 -1.054025,-6.012e-4 z M 12.1297,4.9357783 C 11.300864,4.7862662 10.479909,4.5030278 10.26251,4.2915774 10.145345,4.1776167 10.146616,3.9969082 10.26531,3.8813768 c 0.08789,-0.085478 0.101652,-0.086889 0.648317,-0.066408 0.491716,0.01842 0.62683,0.038921 1.129461,0.1713553 0.822849,0.216808 1.346636,0.4929401 1.346636,0.7099262 0,0.099993 -0.08328,0.235163 -0.170107,0.2761265 -0.13226,0.06239 -0.634799,0.045516 -1.090007,-0.036598 z M 8.3810763,4.8669649 C 8.2076771,4.8277714 7.920044,4.752171 7.7418859,4.698963 7.5637296,4.645756 7.3357821,4.591514 7.2353379,4.5784271 6.7875517,4.5200838 6.3191374,4.31496 6.2817785,4.1608516 6.2477584,4.020485 6.2806571,3.9101753 6.3795875,3.8340899 6.5722212,3.6857744 7.608075,3.7591134 8.3676079,3.9748446 8.9567338,4.1421731 9.453977,4.3861219 9.484435,4.5227597 9.5129396,4.6506173 9.4539219,4.8177285 9.3623777,4.8684595 9.2254126,4.9443499 8.7200228,4.9435797 8.3810702,4.8669529 Z M 25.867919,3.4609749 C 25.267764,3.3083205 24.931734,3.065849 24.931734,2.7854425 c 0,-0.1825197 0.0964,-0.3104465 0.319737,-0.4243213 0.156812,-0.079953 0.222141,-0.088352 0.684704,-0.088024 0.568736,3.69e-4 0.889051,0.070234 1.294723,0.2822526 0.561859,0.2936455 0.5203,0.7649086 -0.08209,0.9309543 -0.27873,0.07683 -0.929872,0.063954 -1.280887,-0.025331 z M 17.791083,3.3505862 C 17.138162,3.2517319 16.424383,2.992851 16.194589,2.771552 16.013591,2.597244 16.031727,2.3669599 16.238769,2.2105568 c 0.201815,-0.1524565 0.849091,-0.1719796 1.58884,-0.047922 0.79315,0.1330121 1.369692,0.4603588 1.369692,0.7776826 0,0.1461722 -0.158816,0.3135763 -0.349867,0.3687909 -0.200075,0.057822 -0.794296,0.081154 -1.056351,0.041478 z m 3.565285,-0.039624 C 20.822561,3.1662268 20.499608,2.9692567 20.436064,2.7496688 20.310216,2.314791 20.814338,2.1053099 21.866735,2.1551721 c 1.001007,0.047428 1.713573,0.3627256 1.713573,0.7582278 0,0.1753252 -0.115165,0.3062132 -0.349192,0.3968671 C 23.052424,3.379486 22.950487,3.388058 22.327953,3.38621 21.7561,3.38451 21.576272,3.370588 21.356368,3.3109622 Z M 13.188927,3.1627338 C 12.616098,3.0958559 12.015751,2.8791287 11.805584,2.6633443 11.682515,2.536984 11.667116,2.502425 11.68731,2.397884 11.7399,2.1256369 11.983305,2.026929 12.602022,2.0269401 c 0.936382,1.71e-5 2.114456,0.319804 2.308671,0.6266845 0.09249,0.1461383 0.03248,0.3489333 -0.132927,0.4491925 -0.113506,0.068803 -0.195399,0.078178 -0.730502,0.083629 -0.331465,0.00338 -0.717719,-0.00728 -0.858337,-0.023709 z M 5.1899339,3.1187029 C 4.4125865,3.0680711 3.2179069,2.7087428 2.9527759,2.4458226 2.799964,2.2942884 2.8570823,2.0277576 3.0579016,1.9552798 3.3340185,1.8556236 4.3145493,1.9225552 5.0066426,2.0883026 6.0778754,2.3448492 6.495279,2.5935229 6.3802817,2.9066679 6.2982951,3.1299364 6.0477141,3.1745723 5.1899369,3.1187023 Z m 4.0177592,0.016715 C 8.9878412,3.1060218 8.2508582,2.926016 7.980071,2.8355747 7.64309,2.7230256 7.3740595,2.5530959 7.3261032,2.4225037 7.300657,2.3532033 7.305214,2.2896251 7.3422314,2.1979069 7.4118714,2.0253526 7.5518273,1.9895933 8.1585717,1.9893292 c 0.9245317,-3.688e-4 2.2705093,0.3539386 2.4711813,0.6505615 0.115241,0.1703437 0.04055,0.3764849 -0.167649,0.4627355 -0.107111,0.044372 -0.264769,0.057386 -0.6433591,0.053108 C 9.5429307,3.1526215 9.2679566,3.1434743 9.207688,3.1354196 Z M 11.70966,1.510937 C 11.423164,1.4834429 10.460877,1.2713108 10.157344,1.1687334 9.2919867,0.8762905 9.0058208,0.61993477 9.2357675,0.34315886 9.3024619,0.26289717 9.3648601,0.23770281 9.5553622,0.21414199 9.7941,0.18461533 10.573836,0.24733391 10.97916,0.32866596 c 0.64777,0.12998116 1.465939,0.4506792 1.638219,0.64213256 0.133449,0.14830438 0.09993,0.38027578 -0.06793,0.47015028 -0.10775,0.057688 -0.568138,0.096056 -0.839787,0.069989 z M 20.311313,1.426376 C 19.669989,1.2528659 19.375737,1.11109 19.096855,0.84123266 18.999382,0.74691235 18.978147,0.69795912 18.978147,0.56753342 c 0,-0.13348235 0.01994,-0.17696499 0.12496,-0.27242549 0.160259,-0.14568162 0.391931,-0.19676814 0.892328,-0.19676814 0.326291,0 0.481993,0.02268282 0.919999,0.13403286 0.793759,0.20178861 1.256405,0.46110971 1.350764,0.75712279 0.03534,0.11089256 0.03131,0.14988686 -0.0262,0.25336466 -0.125174,0.2252656 -0.282044,0.2723489 -0.942529,0.2828907 -0.542203,0.00866 -0.613408,0.00147 -0.986175,-0.099374 z m 4.265981,0.018868 C 23.882082,1.2080712 23.619899,0.84391559 23.920369,0.53282615 24.100723,0.3461012 24.282505,0.30520534 24.8954,0.31347302 c 0.452889,0.006108 0.572199,0.0210137 0.821816,0.1026694 0.296268,0.0969167 0.567311,0.25106947 0.686215,0.3902815 0.102142,0.1195794 0.114523,0.31174848 0.02919,0.45290938 -0.137226,0.2270142 -0.240741,0.255944 -0.953015,0.2663452 -0.588324,0.00859 -0.660128,0.0022 -0.902316,-0.080434 z M 15.81873,1.3409007 c -0.640329,-0.072922 -1.431278,-0.39155527 -1.564712,-0.63034201 -0.09529,-0.17053035 -0.04917,-0.3358325 0.122908,-0.44049506 0.110213,-0.0670323 0.186956,-0.0768574 0.583465,-0.0746989 1.435883,0.007816 2.73792,0.59478877 2.288665,1.03175357 -0.04701,0.045719 -0.141406,0.099737 -0.209778,0.1200386 -0.147767,0.043876 -0.810149,0.040481 -1.220548,-0.00626 z M 6.7239892,1.3059049 C 6.4829229,1.2919578 6.2035059,1.2617671 6.1030617,1.2388158 5.1488223,1.0207737 4.8220239,0.91265217 4.5463555,0.72377685 4.3019566,0.55632766 4.3270919,0.27652045 4.5978801,0.15012867 4.9201642,-2.9633166e-4 6.111717,0.11613936 7.0344493,0.38822373 7.305211,0.46806268 7.7624681,0.68779037 7.864621,0.78715003 8.0253451,0.94347779 7.939512,1.2401051 7.7202239,1.2861511 7.5473823,1.3224443 7.1470458,1.3303823 6.7239882,1.3059048 Z M 1.9209419,1.2836424 C 1.8305446,1.275023 1.4505488,1.2536455 1.1983834,1.1602963 0.94257653,1.0656 0.97778019,1.1406143 0.21846136,0.82802 -0.19186199,0.65909926 0.02014091,0.2263462 0.48257496,0.16305695 1.0372271,0.08714687 1.279374,0.0950055 1.7017914,0.20580814 2.6646453,0.45837466 3.0532212,0.657716 3.0532212,0.89910194 c 0,0.12343036 -0.083261,0.25446866 -0.1968208,0.30978726 -0.1197502,0.058331 -0.6572312,0.1012821 -0.9354585,0.074753 z"
         id="path9"
         sodipodi:nodetypes="sccssssscscssssssscscsssssssscsssccsccscscccsccccccssscccsscccssssssssccssssscssssssscsssccsssssssssssssssssssssssscsssssssssccsscsssssscssscccssscsssscscssssccssssccsssssssssscscssccssssssssscsssssssssssscsscssssscsscccsssssssssssssssssssssssssssssssssssscsssssssssscsssssssssssssssssssssssssssssssscssccsscscsssssscsssssssssssscsscssccsssssscsssscsssssssssssssssssssssssssssssssssssssssssssssssssccsssssssssssscssssscsssssccsscsssssscssscsccccssscsssssssssssssssssssscssscsssccscssscccssssssssssssscsscssscsccsssssssssssssssssssccscsscssscsccc"
         inkscape:label="dots" /><text
         xml:space="preserve"
         style="font-style:normal;font-variant:normal;font-weight:normal;font-stretch:normal;font-size:1.91702px;font-family:'Times New Roman';-inkscape-font-specification:'Times New Roman, ';text-align:start;writing-mode:lr-tb;direction:ltr;text-anchor:start;display:inline;opacity:1;fill:#bfbfbf;fill-opacity:1;stroke-width:0.264583"
         x="1.0416284"
         y="25.30452"
         id="text6"
         inkscape:label="text2"><tspan
           sodipodi:role="line"
           id="tspan6"
           style="font-size:1.91702px;fill:#bfbfbf;fill-opacity:1;stroke-width:0.264583"
           x="1.0416284"
           y="25.30452">(NDS/NDSL)</tspan></text><text
         xml:space="preserve"
         style="font-style:normal;font-variant:normal;font-weight:bold;font-stretch:normal;font-size:3.12199995px;font-family:P052;-inkscape-font-specification:'P052 Bold';text-align:start;writing-mode:lr-tb;direction:ltr;text-anchor:start;display:inline;opacity:1;fill:#bfbfbf;fill-opacity:1;stroke-width:0.264583"
         x="1.0640935"
         y="23.521898"
         id="text5"
         inkscape:label="text1"><tspan
           sodipodi:role="line"
           id="tspan5"
           style="font-style:normal;font-variant:normal;font-weight:normal;font-stretch:normal;font-family:'Times New Roman';-inkscape-font-specification:'Times New Roman, ';fill:#bfbfbf;fill-opacity:1;stroke-width:0.264583;font-size:3.12199995px"
           x="1.0640935"
           y="23.521898">Revolution for DS</tspan></text></g></g></svg>
