<?xml version="1.0" encoding="UTF-8" standalone="no"?>
<!-- Created with Inkscape (http://www.inkscape.org/) -->

<svg
   width="33mm"
   height="35mm"
   viewBox="0 0 33 35"
   version="1.1"
   id="svg1"
   inkscape:version="1.4 (e7c3feb, 2024-10-09)"
   sodipodi:docname="gamecart.svg"
   xmlns:inkscape="http://www.inkscape.org/namespaces/inkscape"
   xmlns:sodipodi="http://sodipodi.sourceforge.net/DTD/sodipodi-0.dtd"
   xmlns="http://www.w3.org/2000/svg"
   xmlns:svg="http://www.w3.org/2000/svg">
  <sodipodi:namedview
     id="namedview1"
     pagecolor="#ffffff"
     bordercolor="#ed0000"
     borderopacity="1"
     inkscape:showpageshadow="0"
     inkscape:pageopacity="0"
     inkscape:pagecheckerboard="0"
     inkscape:deskcolor="#d1d1d1"
     inkscape:document-units="mm"
     showgrid="false"
     inkscape:zoom="2.8284271"
     inkscape:cx="164.5791"
     inkscape:cy="65.407377"
     inkscape:window-width="1680"
     inkscape:window-height="978"
     inkscape:window-x="0"
     inkscape:window-y="0"
     inkscape:window-maximized="1"
     inkscape:current-layer="layer1">
    <inkscape:grid
       id="grid2"
       units="mm"
       originx="0"
       originy="0"
       spacingx="1"
       spacingy="0.99999999"
       empcolor="#0099e5"
       empopacity="0.30196078"
       color="#0099e5"
       opacity="0.14901961"
       empspacing="3"
       enabled="true"
       visible="false" />
  </sodipodi:namedview>
  <defs
     id="defs1" />
  <g
     inkscape:label="Layer 1"
     inkscape:groupmode="layer"
     id="layer1">
    <path
       d="M 0.99993896,0 C 0.44770186,3.3704849e-5 3.3671935e-5,0.4477019 0,0.99993896 V 30.000236 c 1.6853923e-4,2.761387 2.2388244,4.999812 5.0002116,4.999695 H 32.000114 c 0.552237,-3.4e-5 0.999905,-0.447702 0.999939,-0.999939 V 0.99993896 C 33.000019,0.4477019 32.552351,3.3704849e-5 32.000114,0 Z"
       style="fill:#333333;stroke-width:0.264583"
       id="path7"
       inkscape:label="cart" />
    <path
       d="M 3.9997559,0.99993896 C 3.4475188,0.99997267 2.9998506,1.4476409 2.9998169,1.9998779 V 28.500069 l 3.0003337,2.999817 H 29.000297 c 0.552237,-3.4e-5 0.999905,-0.447702 0.999939,-0.999939 V 1.9998779 C 30.000202,1.447439 29.552219,0.9996872 28.99978,0.99993896 Z"
       style="fill:#4d4d4d;stroke-width:0.266779"
       id="path17"
       inkscape:label="margin" />
    <path
       d="M 5.0002116,1.9998779 C 4.4477727,1.9996262 3.9997895,2.447378 3.9997559,2.9998169 V 27.999841 l 2.0003947,2.000395 H 27.999841 c 0.552439,-3.4e-5 1.000191,-0.448017 0.999939,-1.000456 V 2.9998169 c -3.3e-5,-0.5522371 -0.447702,-0.9999053 -0.999939,-0.999939 z"
       style="fill:#ffffff;stroke-width:0.264583"
       id="path1"
       inkscape:label="sticker" />
  </g>
</svg>
