<?xml version="1.0" encoding="UTF-8" standalone="no"?>
<!-- Created with Inkscape (http://www.inkscape.org/) -->

<svg
   width="33mm"
   height="35mm"
   viewBox="0 0 33 35"
   version="1.1"
   id="svg1"
   inkscape:version="1.4 (e7c3feb, 2024-10-09)"
   sodipodi:docname="R4-corrected.svg"
   xml:space="preserve"
   xmlns:inkscape="http://www.inkscape.org/namespaces/inkscape"
   xmlns:sodipodi="http://sodipodi.sourceforge.net/DTD/sodipodi-0.dtd"
   xmlns:xlink="http://www.w3.org/1999/xlink"
   xmlns="http://www.w3.org/2000/svg"
   xmlns:svg="http://www.w3.org/2000/svg"><sodipodi:namedview
     id="namedview1"
     pagecolor="#ffffff"
     bordercolor="#ed0000"
     borderopacity="1"
     inkscape:showpageshadow="0"
     inkscape:pageopacity="0"
     inkscape:pagecheckerboard="0"
     inkscape:deskcolor="#d1d1d1"
     inkscape:document-units="mm"
     showgrid="true"
     inkscape:zoom="4"
     inkscape:cx="60.5"
     inkscape:cy="81.5"
     inkscape:window-width="1680"
     inkscape:window-height="978"
     inkscape:window-x="0"
     inkscape:window-y="0"
     inkscape:window-maximized="1"
     inkscape:current-layer="layer1"><inkscape:grid
       id="grid2"
       units="mm"
       originx="0"
       originy="0"
       spacingx="0.50000001"
       spacingy="0.49999999"
       empcolor="#0099e5"
       empopacity="0.30196078"
       color="#0099e5"
       opacity="0.14901961"
       empspacing="3"
       enabled="true"
       visible="true" /></sodipodi:namedview><defs
     id="defs1"><linearGradient
       id="linearGradient3"
       inkscape:collect="always"><stop
         style="stop-color:#000000;stop-opacity:1;"
         offset="0"
         id="stop1" /><stop
         style="stop-color:#b2b2b2;stop-opacity:1;"
         offset="1"
         id="stop2" /></linearGradient><linearGradient
       inkscape:collect="always"
       xlink:href="#linearGradient3"
       id="linearGradient5"
       x1="14"
       y1="20"
       x2="14"
       y2="30"
       gradientUnits="userSpaceOnUse"
       gradientTransform="matrix(1,0,0,1.0172241,0,-0.52631995)" /><rect
       x="7.5590549"
       y="71.811024"
       width="109.60629"
       height="24.368109"
       id="rect15" /></defs><g
     inkscape:label="Layer 1"
     inkscape:groupmode="layer"
     id="layer1"><path
       d="M 0.99993896,0 C 0.44770186,3.3704849e-5 3.3671935e-5,0.4477019 0,0.99993896 V 30.000236 c 1.6853923e-4,2.761387 2.2388244,4.999812 5.0002116,4.999695 H 32.000114 c 0.552237,-3.4e-5 0.999905,-0.447702 0.999939,-0.999939 V 0.99993896 C 33.000019,0.4477019 32.552351,3.3704849e-5 32.000114,0 Z"
       style="fill:#333333;stroke-width:0.264583"
       id="path7"
       inkscape:label="cart" /><path
       d="M 3.9997559,0.99993896 C 3.4475188,0.99997267 2.9998506,1.4476409 2.9998169,1.9998779 V 28.500069 l 3.0003337,2.999817 H 29.000297 c 0.552237,-3.4e-5 0.999905,-0.447702 0.999939,-0.999939 V 1.9998779 C 30.000202,1.447439 29.552219,0.9996872 28.99978,0.99993896 Z"
       style="fill:#4d4d4d;stroke-width:0.266779"
       id="path17"
       inkscape:label="margin" /><path
       d="M 5.0002116,1.9998779 C 4.4477727,1.9996262 3.9997895,2.447378 3.9997559,2.9998169 V 27.999841 l 2.0003947,2.000395 H 27.999841 c 0.552439,-3.4e-5 1.000191,-0.448017 0.999939,-1.000456 V 2.9998169 c -3.3e-5,-0.5522371 -0.447702,-0.9999053 -0.999939,-0.999939 z"
       style="display:none;fill:#ffffff;stroke-width:0.264583"
       id="path1"
       inkscape:label="sticker"
       sodipodi:insensitive="true" /><g
       inkscape:label="R4-sticker"
       id="layer1-5"
       transform="matrix(0.94643214,0,0,0.94999255,3.5002334,2)"><path
         d="m 1.0563532,-0.52631994 c -0.55223703,3.428e-5 -1.05656605923,0.49089099 -1.05659976408,1.05263982 l 0,26.84231512 L 3.1695528,30.526555 H 26.414749 c 0.552439,-3.5e-5 1.056851,-0.490686 1.056599,-1.05264 l 0,-28.94759512 c -3.3e-5,-0.56174883 -0.504362,-1.05260554 -1.056599,-1.05263982 z"
         style="display:inline;fill:url(#linearGradient5);stroke-width:0.266852"
         id="path4"
         inkscape:label="Background"
         sodipodi:nodetypes="ccccccccc" /><path
         d="M 8.9591646,16.213019 V 15.583537 H 7.1876018 5.4160412 L 4.6596937,14.63289 3.903349,13.682243 3.7810448,13.682604 c -0.2613786,7.47e-4 -0.2443091,-0.03634 -0.2443091,0.530631 0,0.68078 -0.00636,0.670693 0.4337946,0.683 l 0.2304529,0.0064 0.00761,0.340433 0.00761,0.340436 H 2.9003804 1.5846531 V 15.236658 14.889801 H 1.826444 c 0.132987,0 0.2615419,-0.0071 0.2856814,-0.01597 0.1202401,-0.04374 0.1232232,-0.0821 0.1231172,-1.582174 -9.44e-5,-1.348389 -0.00267,-1.424886 -0.051385,-1.500529 -0.057656,-0.0896 -0.1439253,-0.11222 -0.4297505,-0.112698 l -0.1694506,-2.84e-4 v -0.385395 -0.385398 h 1.7498756 c 1.4913055,0 1.7807566,0.006 1.9588517,0.04073 0.5186169,0.101075 0.992708,0.47823 1.1739506,0.933909 0.049597,0.12471 0.05561,0.185837 0.046933,0.477641 -0.00914,0.3066 -0.016539,0.347487 -0.088617,0.488168 -0.1676989,0.327343 -0.6075181,0.650256 -0.9978507,0.732616 -0.085739,0.01808 -0.1558953,0.04112 -0.1558953,0.05115 0,0.04836 0.5725999,0.566395 0.7049162,0.637758 0.1338299,0.07217 0.1721557,0.08044 0.3738425,0.08067 0.2232154,2.39e-4 0.2254265,-4.13e-4 0.3289352,-0.0961 0.117844,-0.108955 0.5225109,-0.536736 2.2785881,-2.408731 0.6760655,-0.720693 1.2456696,-1.31409 1.2657846,-1.318658 0.03044,-0.0069 0.03658,0.31301 0.03658,1.907716 v 1.916024 h 0.284678 0.284676 v 0.615737 0.615736 l -0.2779,0.0072 -0.277897,0.0072 -0.0073,0.62306 -0.0073,0.623058 H 9.609297 8.9590875 Z m 0,-2.247628 v -0.487649 l -0.2496349,0.262832 c -0.1373003,0.14456 -0.3460283,0.364 -0.4638396,0.487649 L 8.0314824,14.453037 H 8.495324 8.9591646 Z M 4.5769312,12.793025 c 0.1649194,-0.05326 0.301346,-0.17621 0.339313,-0.305813 0.045526,-0.155392 0.036851,-0.336551 -0.021267,-0.443931 -0.1191711,-0.22022 -0.2804075,-0.291739 -0.6939965,-0.30783 -0.3371996,-0.01312 -0.5011323,0.01703 -0.5995846,0.110349 -0.06337,0.06004 -0.064666,0.07059 -0.064666,0.524924 v 0.463645 h 0.4560778 c 0.348033,0 0.4864075,-0.0099 0.5841178,-0.04134 z"
         style="display:inline;fill:#ffffff;fill-opacity:1;stroke-width:0.264754"
         id="path1-3"
         inkscape:label="R4 logo" /><path
         style="fill:#e6e6e6;stroke-width:0.28634"
         d="m 23.15315,30.501731 c -0.03942,-0.01884 -0.109568,-0.07893 -0.155887,-0.133569 -0.292268,-0.344688 0.257177,-1.095756 0.807464,-1.103758 0.158415,-0.0022 0.201868,0.01424 0.295643,0.112579 0.196557,0.206139 0.144381,0.487683 -0.147002,0.793223 -0.256434,0.268906 -0.617902,0.418654 -0.800218,0.331525 z m 1.67757,-0.04646 c -0.21983,-0.07043 -0.313948,-0.310912 -0.224188,-0.572788 0.05792,-0.168999 0.353277,-0.481569 0.553415,-0.58568 0.29253,-0.152186 0.56316,-0.102349 0.655984,0.120807 0.09597,0.230745 0.01967,0.475087 -0.225802,0.72292 -0.267605,0.270189 -0.542664,0.384189 -0.759409,0.314741 z m 1.543277,-0.01306 c -0.205551,-0.09886 -0.291443,-0.365901 -0.187995,-0.584499 0.249593,-0.527437 0.8201,-0.814401 1.102202,-0.554403 0.293684,0.270682 0.09688,0.768235 -0.415818,1.05124 -0.232986,0.128603 -0.364979,0.15182 -0.498389,0.08767 z m -4.772105,-0.0665 c -0.135439,-0.04324 -0.258107,-0.232843 -0.258309,-0.399249 -5.76e-4,-0.511045 0.855046,-1.064183 1.194195,-0.771968 0.100347,0.08646 0.153595,0.289436 0.117384,0.447482 -0.01216,0.05302 -0.111422,0.202102 -0.22059,0.331262 -0.281061,0.332523 -0.579654,0.47326 -0.83268,0.392473 z m 1.210818,-1.712702 c -0.172642,-0.09446 -0.247821,-0.323801 -0.183376,-0.559405 0.05717,-0.209016 0.299814,-0.500457 0.496524,-0.596375 0.125594,-0.06125 0.176092,-0.06693 0.291738,-0.03281 0.374293,0.110394 0.346525,0.675019 -0.05205,1.058332 -0.219334,0.210943 -0.349396,0.24159 -0.55284,0.130265 z m 1.479444,0.04023 c -0.04367,-0.0087 -0.120272,-0.06903 -0.170217,-0.134047 -0.230067,-0.299489 8.3e-5,-0.880193 0.426128,-1.07518 0.295733,-0.135346 0.558129,0.05674 0.558129,0.408603 0,0.162516 -0.02099,0.213926 -0.170222,0.416775 -0.226215,0.307508 -0.426823,0.427113 -0.643818,0.383849 z m 1.24111,-0.11994 c -0.08608,-0.08423 -0.11596,-0.151622 -0.130681,-0.294682 -0.01629,-0.158344 -0.0045,-0.208482 0.0805,-0.342871 0.35101,-0.554796 0.800686,-0.64948 0.972502,-0.204772 0.07595,0.196585 -0.0058,0.465112 -0.215621,0.709564 -0.233961,0.272374 -0.510887,0.324402 -0.706699,0.132761 z m 1.493391,-0.0576 c -0.09594,-0.162478 -0.102842,-0.287746 -0.02625,-0.477354 0.06551,-0.162192 0.08454,-0.179995 0.191222,-0.178872 0.194509,0.002 0.243909,0.07165 0.243909,0.343686 0,0.210524 -0.01095,0.247591 -0.09441,0.319508 -0.123703,0.10658 -0.249031,0.103804 -0.314438,-0.007 z m -3.445107,-1.852893 c -0.123593,-0.135375 -0.118238,-0.34699 0.01449,-0.573071 0.154754,-0.263579 0.265527,-0.357548 0.448039,-0.380082 0.139731,-0.01726 0.173415,-0.006 0.257436,0.08603 0.08418,0.09222 0.0943,0.128768 0.07843,0.283119 -0.01129,0.109704 -0.05897,0.239439 -0.125144,0.340475 -0.218779,0.334061 -0.498295,0.435169 -0.673256,0.243523 z m 1.254249,0 c -0.129545,-0.141895 -0.119389,-0.353832 0.02851,-0.594899 0.215945,-0.351997 0.481959,-0.462447 0.655629,-0.272219 0.130486,0.142924 0.121097,0.37875 -0.02437,0.612249 -0.214601,0.344463 -0.48323,0.448237 -0.659763,0.254869 z m 1.306874,-0.01837 c -0.117672,-0.128896 -0.128679,-0.217583 -0.05195,-0.418724 0.186635,-0.489262 0.634669,-0.696962 0.790667,-0.366537 0.08154,0.172714 0.06332,0.323822 -0.06403,0.531432 -0.224959,0.366683 -0.483012,0.463771 -0.674677,0.253829 z m 0.476389,-1.673629 c -0.261484,-0.200614 -0.241221,-0.734663 0.03487,-0.919044 0.147334,-0.0984 0.211561,-0.09927 0.379863,-0.0052 0.20857,0.116598 0.266244,0.209546 0.269334,0.434056 0.0021,0.167456 -0.01344,0.216492 -0.102665,0.319262 -0.198503,0.228693 -0.420879,0.29406 -0.581402,0.170906 z m -2.524775,-0.196445 c -0.129763,-0.07712 -0.206505,-0.248331 -0.206505,-0.460706 0,-0.235763 0.118093,-0.42217 0.315065,-0.497326 0.138103,-0.05268 0.161937,-0.05163 0.270113,0.01218 0.156656,0.09241 0.245017,0.264562 0.245017,0.477376 0,0.399539 -0.326731,0.644953 -0.62369,0.468462 z m 1.248957,-0.02055 c -0.191888,-0.165332 -0.249404,-0.422253 -0.151802,-0.678118 0.167049,-0.437921 0.682053,-0.381318 0.777428,0.08543 0.08899,0.43555 -0.338241,0.840287 -0.625626,0.592674 z m 1.315133,-1.643178 c -0.380074,-0.253842 -0.287277,-0.983263 0.125089,-0.983263 0.149763,0 0.399949,0.164774 0.471004,0.310208 0.115561,0.236507 -0.0055,0.552195 -0.262945,0.68604 -0.156391,0.08128 -0.194205,0.07981 -0.333148,-0.01299 z m -1.22966,0.0095 c -0.180619,-0.07232 -0.322521,-0.326355 -0.322521,-0.57738 0,-0.241147 0.162472,-0.454715 0.345929,-0.454715 0.264123,0 0.478289,0.255028 0.478289,0.569544 0,0.32532 -0.255686,0.561055 -0.501697,0.462551 z m -1.240049,-0.105301 c -0.343613,-0.168566 -0.398883,-0.769061 -0.08704,-0.945694 0.181534,-0.102836 0.316118,-0.07708 0.468281,0.08958 0.217789,0.238557 0.234005,0.524239 0.0428,0.754071 -0.116288,0.139777 -0.271137,0.177037 -0.424033,0.102039 z m -0.293855,-1.88796 c -0.206774,-0.190578 -0.280906,-0.527342 -0.168494,-0.765443 0.166045,-0.351711 0.538438,-0.301572 0.702714,0.09462 0.116461,0.280869 0.07573,0.558909 -0.105396,0.719441 -0.09486,0.08407 -0.311516,0.05952 -0.428824,-0.04862 z m 1.128576,-0.05628 c -0.147589,-0.178938 -0.199539,-0.427257 -0.134525,-0.643031 0.05237,-0.173838 0.141436,-0.260646 0.2955,-0.28803 0.31568,-0.05613 0.578908,0.521689 0.405241,0.889537 -0.06659,0.141044 -0.154476,0.195476 -0.315625,0.195476 -0.09832,0 -0.14958,-0.03149 -0.250591,-0.153952 z m 1.289411,0.02541 c -0.329942,-0.34084 -0.202709,-0.970534 0.196102,-0.970534 0.213912,0 0.430884,0.308 0.430884,0.611659 0,0.289114 -0.148658,0.484056 -0.370737,0.486158 -0.100641,9.64e-4 -0.161274,-0.02917 -0.256249,-0.127283 z M 26.46532,19.54753 c -0.286384,-0.165831 -0.562214,-0.633812 -0.51974,-0.881802 0.04149,-0.242264 0.270894,-0.381082 0.495546,-0.29987 0.195074,0.07052 0.534346,0.497531 0.60269,0.758549 0.0981,0.374675 -0.237834,0.620387 -0.578496,0.423123 z m -1.520389,-0.06035 c -0.15098,-0.08836 -0.366988,-0.321536 -0.488323,-0.527181 -0.186867,-0.316708 -0.124837,-0.664302 0.132726,-0.743778 0.33176,-0.102381 0.831486,0.400104 0.867212,0.87198 0.01341,0.177428 0.0029,0.224588 -0.06874,0.315248 -0.10662,0.134471 -0.295224,0.170128 -0.442884,0.08375 z m -1.488164,-0.123012 c -0.281144,-0.205416 -0.535304,-0.598937 -0.536201,-0.8302 -5.75e-4,-0.121732 0.09218,-0.310349 0.176845,-0.359972 0.09747,-0.05712 0.275098,-0.05013 0.390858,0.01544 0.140795,0.07975 0.393152,0.391436 0.473107,0.584329 0.100731,0.243025 0.09036,0.403077 -0.03502,0.540395 -0.122436,0.134111 -0.324976,0.155675 -0.469608,0.05002 z m 2.233577,-1.587219 c -0.258908,-0.0838 -0.661842,-0.649328 -0.668768,-0.93864 -0.0075,-0.309949 0.299026,-0.461164 0.569046,-0.280795 0.1391,0.09292 0.358319,0.346635 0.467233,0.540775 0.221392,0.394624 0.0026,0.798471 -0.367511,0.678656 z m 1.257799,-0.107662 C 26.6643,17.443804 26.434693,17.07044 26.4329,16.831445 c -0.0011,-0.165455 0.1599,-0.34647 0.308429,-0.34647 0.353869,0 0.730019,0.445637 0.730019,0.86487 0,0.201623 -0.04524,0.295712 -0.178462,0.371174 -0.144254,0.08171 -0.184318,0.07571 -0.344743,-0.05175 z m -2.719923,-0.0072 c -0.196756,-0.04743 -0.392081,-0.185091 -0.597606,-0.421223 -0.23457,-0.2695 -0.285808,-0.436839 -0.193581,-0.632192 0.155022,-0.328359 0.544323,-0.260514 0.946249,0.164909 0.223884,0.236969 0.29318,0.365928 0.292087,0.543564 -0.0013,0.244459 -0.206836,0.402857 -0.447149,0.344942 z m -1.510169,-0.04234 c -0.32079,-0.101822 -0.693723,-0.541359 -0.693723,-0.817627 0,-0.251613 0.186824,-0.393006 0.448291,-0.339278 0.152457,0.03132 0.540253,0.345382 0.652494,0.528417 0.143165,0.23346 0.08963,0.508951 -0.121908,0.627452 -0.08989,0.05034 -0.129321,0.05049 -0.285154,9.95e-4 z m 3.868169,-1.802968 c -0.192622,-0.107302 -0.463892,-0.368532 -0.531583,-0.511907 -0.08381,-0.177533 -0.06648,-0.341521 0.04956,-0.468617 0.227985,-0.249722 0.585953,-0.162088 0.988573,0.242014 l 0.23865,0.239531 -0.01066,0.196909 c -0.0086,0.16108 -0.02833,0.211303 -0.107731,0.276023 -0.145835,0.118871 -0.438352,0.131025 -0.626805,0.02604 z M 21.428809,15.69417 c -0.258788,-0.111817 -0.598266,-0.42393 -0.692148,-0.636355 -0.08986,-0.203331 -0.07451,-0.32741 0.05731,-0.462968 0.193516,-0.199019 0.596858,-0.07743 0.964671,0.290769 0.328036,0.328393 0.388632,0.568009 0.196777,0.778155 -0.126166,0.138194 -0.259336,0.145883 -0.526603,0.0304 z m 1.697915,0.02494 c -0.290752,-0.116981 -0.678404,-0.49488 -0.777441,-0.757882 -0.0425,-0.112823 -0.04157,-0.147667 0.0068,-0.258692 0.160057,-0.367638 0.707916,-0.229074 1.152448,0.291475 0.207975,0.243544 0.251108,0.360124 0.198199,0.535715 -0.06857,0.227613 -0.298416,0.302666 -0.579968,0.189384 z m 1.510374,0.0056 c -0.278612,-0.109087 -0.605975,-0.498718 -0.605975,-0.721235 0,-0.123924 0.09215,-0.312253 0.177195,-0.3621 0.115646,-0.0678 0.387753,-0.04673 0.547205,0.04239 0.229111,0.128027 0.52,0.46745 0.549818,0.641554 0.05811,0.339245 -0.290195,0.547414 -0.668243,0.399397 z m -2.953211,-1.741955 c -0.500343,-0.196171 -0.831612,-0.65258 -0.690039,-0.950716 0.19323,-0.406908 0.854549,-0.356009 1.268722,0.09765 0.132245,0.144854 0.194055,0.247416 0.211898,0.351601 0.0703,0.410494 -0.347185,0.675306 -0.790581,0.501465 z m 2.016081,-0.02643 c -0.349152,-0.136494 -0.71585,-0.544207 -0.744307,-0.827556 -0.01864,-0.185616 0.0076,-0.270642 0.122232,-0.396217 0.106781,-0.11696 0.144485,-0.133459 0.304994,-0.133459 0.216379,0 0.432622,0.101345 0.648889,0.30411 0.249816,0.234223 0.357702,0.425775 0.357702,0.635103 0,0.384964 -0.30346,0.568938 -0.68951,0.418019 z m -3.652249,-0.07661 c -0.567762,-0.255796 -0.976746,-0.700898 -0.910337,-0.990723 0.06553,-0.285965 0.356558,-0.329041 0.767087,-0.113542 0.272905,0.143255 0.650595,0.497519 0.746156,0.699869 0.106145,0.224774 -0.05294,0.498636 -0.288531,0.496671 -0.0614,-5.38e-4 -0.202868,-0.04204 -0.314375,-0.09228 z m 5.327242,-0.08746 c -0.328548,-0.183606 -0.529072,-0.446182 -0.526015,-0.688791 0.0026,-0.214461 0.08397,-0.335523 0.260151,-0.387483 0.267635,-0.07892 0.559147,0.06044 0.838684,0.401001 0.134282,0.163593 0.161808,0.223558 0.161808,0.352475 0,0.196181 -0.04612,0.290713 -0.178458,0.365664 -0.152638,0.08645 -0.352292,0.07108 -0.55617,-0.04287 z m 1.584183,-0.2154 c -0.252893,-0.228333 -0.308622,-0.490351 -0.148597,-0.698663 0.184759,-0.240509 0.4488,-0.187877 0.591195,0.117843 0.0998,0.214292 0.0911,0.432584 -0.02314,0.581342 -0.120726,0.15715 -0.244968,0.156997 -0.419429,-5.41e-4 z m -0.188431,-1.328877 c -0.253065,-0.09869 -0.389031,-0.180408 -0.537044,-0.322755 -0.289312,-0.278237 -0.312649,-0.61145 -0.05312,-0.758452 0.148117,-0.0839 0.33868,-0.07245 0.623042,0.03748 0.327815,0.126708 0.50773,0.26307 0.595376,0.451254 0.108299,0.232517 0.09494,0.377196 -0.04947,0.535352 -0.143134,0.156786 -0.286875,0.170974 -0.578789,0.05712 z m -8.52705,-0.27168 c -0.157677,-0.05978 -0.359254,-0.149736 -0.447947,-0.19991 -0.200198,-0.11325 -0.552376,-0.406894 -0.625897,-0.521869 -0.13381,-0.209257 -0.01671,-0.510595 0.214425,-0.551676 0.279398,-0.04966 0.938442,0.21566 1.335113,0.537497 0.369584,0.29986 0.450551,0.526873 0.261694,0.733734 -0.08761,0.09597 -0.133057,0.114426 -0.277726,0.112824 -0.09514,-9.95e-4 -0.301986,-0.05083 -0.459662,-0.1106 z m 2.078467,0.05739 c -0.331803,-0.115428 -0.722727,-0.393728 -0.85001,-0.605131 -0.11947,-0.198422 -0.05795,-0.441153 0.1399,-0.551982 0.214463,-0.120135 0.735894,0.01516 1.094992,0.284083 0.338505,0.253517 0.459265,0.507744 0.348689,0.734059 -0.08871,0.181554 -0.426957,0.245634 -0.733571,0.138971 z m 4.204827,-0.0181 c -0.342807,-0.123646 -0.637858,-0.348242 -0.773376,-0.588715 -0.106366,-0.18874 -0.101691,-0.29255 0.01987,-0.441566 0.143718,-0.176187 0.365336,-0.194636 0.717228,-0.05972 0.46774,0.179341 0.830534,0.53117 0.830534,0.805431 0,0.04496 -0.04567,0.137752 -0.101486,0.20618 -0.08615,0.105623 -0.130819,0.126464 -0.295643,0.137992 -0.123674,0.0086 -0.267842,-0.013 -0.397119,-0.05962 z m -1.954991,-0.02494 C 22.070529,11.838884 21.55846,11.41183 21.55846,11.14544 c 0,-0.08414 0.03415,-0.159873 0.109161,-0.242023 0.107329,-0.117565 0.114075,-0.119269 0.403148,-0.101843 0.372677,0.02248 0.746892,0.202089 1.00175,0.480818 0.149893,0.163928 0.170219,0.206151 0.170219,0.353562 0,0.128536 -0.02195,0.191429 -0.09447,0.270886 -0.05195,0.05691 -0.114452,0.103488 -0.138864,0.103488 -0.0244,0 -0.09075,0.0083 -0.147416,0.01848 -0.05667,0.01014 -0.187172,-0.007 -0.290018,-0.03813 z m 3.322611,-1.669822 c -0.252423,-0.099 -0.646406,-0.3928755 -0.775801,-0.5786934 -0.140122,-0.2012248 -0.138778,-0.4125614 0.0034,-0.5465901 0.09292,-0.087541 0.129432,-0.096434 0.342004,-0.083276 0.299094,0.01851 0.612314,0.181934 0.908552,0.4740355 0.186844,0.1842356 0.211511,0.226453 0.228441,0.390959 0.01715,0.166693 0.0084,0.195923 -0.09023,0.304054 -0.133027,0.14571 -0.315748,0.157421 -0.61643,0.03951 z m -7.449795,-0.137089 c -0.388173,-0.118011 -0.870048,-0.4718035 -0.990705,-0.7273757 -0.08471,-0.1794206 -0.06547,-0.3051855 0.06929,-0.4527825 0.119719,-0.1311294 0.127233,-0.133458 0.430702,-0.133458 0.51145,0 0.977705,0.2209253 1.325305,0.6279698 0.138816,0.1625536 0.164788,0.2176332 0.164788,0.3494688 0,0.108828 -0.02633,0.1900526 -0.08647,0.2666356 -0.08131,0.103572 -0.10534,0.110673 -0.403154,0.119186 -0.196052,0.0056 -0.390235,-0.01329 -0.509762,-0.04964 z m 2.594063,0.02217 c -0.376201,-0.10504 -0.903117,-0.4561057 -1.003426,-0.6685764 -0.138044,-0.292403 0.0046,-0.5583956 0.324411,-0.6051405 0.368617,-0.053871 1.003307,0.2302572 1.298842,0.581443 0.08152,0.096866 0.158132,0.2194213 0.170262,0.2723442 0.02968,0.1295886 -0.06693,0.3243777 -0.197625,0.3984067 -0.110187,0.06242 -0.407275,0.07319 -0.592464,0.02149 z m 2.123556,-0.05699 C 22.857182,10.03089 22.606978,9.8352674 22.516257,9.6436969 c -0.06382,-0.1347898 -0.06576,-0.1625794 -0.0205,-0.2943928 0.06456,-0.1880429 0.231228,-0.2827939 0.49757,-0.2828754 0.582624,-1.792e-4 1.25282,0.4113619 1.25282,0.7693067 0,0.3012456 -0.148273,0.4086036 -0.56263,0.4073766 -0.201265,-5.95e-4 -0.347148,-0.02698 -0.52111,-0.09422 z m -7.140974,-0.09833 C 15.673509,9.9185137 15.546442,9.8490107 15.277757,9.6437661 14.939963,9.3857343 14.847166,9.1355174 15.0116,8.9261199 c 0.116401,-0.1482224 0.346157,-0.1660274 0.757952,-0.058739 0.447096,0.1164869 0.80925,0.3166017 1.06395,0.587903 0.252195,0.2686364 0.276632,0.4073121 0.104915,0.5954001 -0.09739,0.106678 -0.12319,0.114529 -0.367315,0.111781 -0.188753,-0.0022 -0.343279,-0.03359 -0.549675,-0.111914 z M 26.987562,9.9329283 c -0.09644,-0.06257 -0.107236,-0.089133 -0.10492,-0.2581058 0.0023,-0.1553093 0.02003,-0.2048024 0.102066,-0.2820791 0.06784,-0.063929 0.123982,-0.086002 0.17659,-0.069436 0.147507,0.04645 0.256344,0.1629144 0.290557,0.3109193 0.03202,0.1385137 0.02671,0.1555815 -0.08119,0.2611922 -0.131154,0.1283521 -0.228401,0.1378741 -0.3831,0.037514 z M 25.070357,8.4040785 C 24.382869,8.1891334 23.923616,7.8566774 23.923616,7.573942 c 0,-0.062114 0.03842,-0.1614746 0.08571,-0.2217123 0.07677,-0.097785 0.113497,-0.110693 0.352341,-0.1239039 0.332448,-0.018392 0.627893,0.06005 1.015295,0.2695521 0.524652,0.2837222 0.700516,0.6009244 0.471965,0.8512658 -0.08022,0.087845 -0.132468,0.1068067 -0.320731,0.1163539 -0.140998,0.00715 -0.311823,-0.015764 -0.457848,-0.061419 z M 16.585656,8.3171018 C 15.893627,8.1579199 15.32863,7.828036 15.263854,7.545344 15.233734,7.4139275 15.317784,7.2264911 15.437144,7.1588864 15.801251,6.9526471 17.10453,7.342183 17.436656,7.7565188 17.62613,7.9928924 17.562062,8.27893 17.30192,8.358067 17.117594,8.41414 16.971091,8.405759 16.585656,8.3171018 Z m 2.840585,0.0032 c -1.019195,-0.2438416 -1.546062,-0.6888816 -1.270245,-1.072957 0.118447,-0.1649391 0.303132,-0.1973636 0.688825,-0.1209353 0.627097,0.1242643 1.117013,0.3376302 1.37722,0.5998027 0.134337,0.1353551 0.1721,0.2618597 0.121596,0.4073636 -0.0846,0.2437334 -0.40585,0.3091215 -0.917396,0.1867327 z m 2.777264,-0.00161 C 21.868333,8.2239097 21.404178,7.9762714 21.22698,7.7977084 21.120376,7.6902794 21.092598,7.6336174 21.092598,7.5235941 c 0,-0.07628 0.0101,-0.167285 0.02224,-0.2022323 0.128324,-0.3662899 1.29935,-0.1258114 1.816799,0.3730932 0.139354,0.1343602 0.167737,0.184846 0.167737,0.2983546 0,0.3797107 -0.308642,0.4919858 -0.895889,0.325896 z M 13.782122,8.261523 C 13.291816,8.1527702 12.564318,7.7989387 12.327024,7.5538032 12.173217,7.3949122 12.162836,7.2252402 12.297884,7.077323 c 0.09018,-0.098782 0.101753,-0.1008465 0.456904,-0.081509 0.822292,0.044774 1.994903,0.6515339 1.994903,1.032248 0,0.054892 -0.03959,0.1431581 -0.08797,0.1961488 -0.07909,0.086634 -0.116118,0.095976 -0.367313,0.092659 -0.153645,-0.002 -0.384176,-0.026941 -0.512287,-0.055353 z M 26.821534,8.1531306 C 26.231707,7.8186852 26.334047,7.2607437 26.98522,7.2607437 c 0.177775,0 0.209439,0.013568 0.323669,0.1386918 0.116955,0.1280991 0.126621,0.1567759 0.126621,0.3754782 0,0.2871956 -0.04013,0.3782094 -0.198828,0.4508362 -0.160979,0.073672 -0.155442,0.074641 -0.415148,-0.072619 z M 26.661025,6.6964409 c -0.28542,-0.1162153 -0.527693,-0.273432 -0.620484,-0.4026446 -0.179603,-0.2501 -0.02104,-0.5717631 0.308511,-0.6258962 0.261755,-0.042994 0.711425,0.00485 0.844275,0.089838 0.333609,0.2134163 0.372559,0.6951868 0.07679,0.9500069 -0.124631,0.1073847 -0.326826,0.1036324 -0.609105,-0.011302 z m -9.12835,-0.1833607 c -0.64535,-0.118643 -1.32546,-0.4876272 -1.424449,-0.772813 -0.04914,-0.1415411 0.04145,-0.3373115 0.192359,-0.4157504 0.241703,-0.1256306 0.812383,-0.077191 1.367587,0.1160757 0.589369,0.205163 0.91915,0.4276999 0.971338,0.6554609 0.03401,0.1483628 -0.08226,0.3484833 -0.236356,0.4068679 -0.139387,0.05281 -0.608693,0.058288 -0.870479,0.010155 z m 3.254479,0.00486 C 20.313413,6.4350173 19.733753,6.1719594 19.578004,5.9692159 19.396037,5.7323413 19.485234,5.422334 19.75935,5.3389443 c 0.238629,-0.072594 0.722941,-0.048633 1.086762,0.053769 0.648139,0.1824249 0.999034,0.4288836 0.999034,0.7016938 0,0.2038246 -0.02905,0.2581395 -0.184508,0.3450113 -0.160433,0.089654 -0.589543,0.1282305 -0.873484,0.078529 z m 3.243969,-0.00353 C 23.391899,6.4442788 22.81271,6.1113854 22.81271,5.8141154 c 0,-0.2559519 0.210052,-0.3992474 0.627009,-0.4277407 0.726704,-0.04966 1.558967,0.3170312 1.558967,0.6868739 0,0.3340861 -0.376952,0.5059572 -0.967563,0.4411603 z M 10.970583,6.3739185 C 10.425916,6.2641694 10.246789,6.2043464 9.854005,6.0010265 9.3856917,5.7586056 9.2278782,5.48221 9.4191287,5.2393823 9.5626598,5.0571442 9.865339,5.022694 10.416212,5.1258962 c 0.688415,0.1289689 1.466791,0.4516433 1.674951,0.6943459 0.17937,0.2091349 0.06979,0.5213986 -0.211689,0.6032314 -0.224258,0.065197 -0.382104,0.056593 -0.908891,-0.049555 z m 3.16403,-0.015366 C 13.683584,6.2752749 13.457804,6.1987503 13.123934,6.0159989 12.802857,5.8402519 12.707052,5.7339091 12.707052,5.5532651 c 0,-0.2996586 0.241104,-0.404914 0.823752,-0.3596132 0.529974,0.041206 0.975274,0.1693769 1.449208,0.4171294 0.270864,0.1415957 0.378881,0.2727218 0.378881,0.4599324 0,0.3535708 -0.381941,0.4433689 -1.22428,0.2878388 z m 12.494599,-1.362121 c -0.76314,-0.1897452 -1.379678,-0.5727131 -1.379678,-0.8569976 0,-0.1613174 0.171317,-0.3244921 0.410681,-0.3911645 0.274091,-0.076344 0.322091,-0.075208 0.831049,0.019653 0.715314,0.1333247 0.944246,0.3233743 0.944246,0.7838631 0,0.1804095 -0.01447,0.2204673 -0.121841,0.3381141 -0.116035,0.1271027 -0.133531,0.1332409 -0.367315,0.1289045 -0.135011,-0.00252 -0.277727,-0.012572 -0.317142,-0.022373 z M 22.540939,4.7496478 C 22.460449,4.730954 22.266935,4.668882 22.110911,4.61171 21.455882,4.3716863 21.215405,4.0174401 21.497637,3.7083003 c 0.151501,-0.1659465 0.417469,-0.2562799 0.831292,-0.2823397 0.518236,-0.032635 1.274487,0.1833847 1.558543,0.4451932 0.315292,0.2905935 0.249045,0.6294413 -0.160951,0.8232898 -0.163768,0.077428 -0.935209,0.1133504 -1.185582,0.055204 z M 19.24706,4.631491 C 18.710664,4.5778548 17.950975,4.2977956 17.785672,4.0927506 17.603564,3.8668597 17.660221,3.5774595 17.910959,3.4528076 c 0.124443,-0.061865 0.234986,-0.076439 0.583555,-0.076935 0.360798,-5.387e-4 0.493486,0.017676 0.824219,0.1129904 0.506467,0.1459591 0.75624,0.2686524 0.942951,0.4632027 0.111529,0.1162114 0.150036,0.1867573 0.150036,0.2748754 0,0.1530189 -0.113512,0.3093355 -0.260368,0.3585474 -0.172256,0.057723 -0.579761,0.078454 -0.904292,0.046002 z M 15.407159,4.5894015 C 14.949633,4.5240826 14.260035,4.260459 14.018694,4.0586116 13.742131,3.8273068 13.76192,3.5245002 14.062638,3.3861757 c 0.105417,-0.04849 0.224271,-0.056146 0.59746,-0.038484 1.009543,0.047779 2.060553,0.5120617 2.060553,0.9102461 0,0.131879 -0.13026,0.2867164 -0.279359,0.3320745 -0.151894,0.046208 -0.708484,0.04588 -1.034131,-6.241e-4 z M 11.900751,4.5100145 C 11.087559,4.3548217 10.282099,4.0608217 10.068804,3.8413372 9.9538502,3.7230466 9.9550972,3.5354719 10.071551,3.415551 c 0.08623,-0.088726 0.09973,-0.090191 0.63608,-0.068931 0.482435,0.019121 0.614999,0.0404 1.108143,0.177866 0.807318,0.2250455 1.321218,0.5116693 1.321218,0.7368998 0,0.1037923 -0.08171,0.2440981 -0.166896,0.286618 -0.129763,0.06476 -0.622817,0.047245 -1.069433,-0.037989 z M 8.2228815,4.4385866 C 8.0527552,4.3979039 7.7705511,4.3194311 7.5957557,4.2642014 7.420962,4.2089728 7.197317,4.1526699 7.0987686,4.1390858 6.6594342,4.0785257 6.1998611,3.8656081 6.1632073,3.7056444 6.1298294,3.5599446 6.1621071,3.4454437 6.2591702,3.3664674 6.448168,3.2125166 7.4644704,3.2886421 8.2096674,3.51257 8.7876737,3.6862562 9.2755316,3.9394739 9.3054147,4.0813032 9.3333813,4.2140189 9.2754775,4.3874793 9.1856612,4.4401379 9.0512813,4.5189118 8.5554305,4.5181123 8.2228756,4.4385741 Z M 25.379665,2.9791758 C 24.790838,2.8207214 24.461151,2.5690371 24.461151,2.2779766 c 0,-0.1894547 0.09458,-0.3222421 0.313702,-0.4404436 0.153852,-0.082991 0.217948,-0.091708 0.67178,-0.091368 0.558001,3.83e-4 0.872271,0.072902 1.270286,0.2929768 0.551254,0.3048026 0.510479,0.7939714 -0.08054,0.966326 -0.273469,0.07975 -0.912321,0.066384 -1.256711,-0.026294 z M 17.455277,2.8645929 C 16.81468,2.7619826 16.114373,2.4932655 15.888917,2.2635582 15.711335,2.0826274 15.729129,1.8435936 15.932267,1.6812479 c 0.198005,-0.1582491 0.833064,-0.1785139 1.558851,-0.049743 0.778179,0.1380659 1.343839,0.4778502 1.343839,0.8072308 0,0.151726 -0.155818,0.3254906 -0.343263,0.3828032 -0.196299,0.060018 -0.779304,0.084238 -1.036413,0.043054 z m 3.497992,-0.041129 C 20.429537,2.673229 20.11268,2.4687751 20.050335,2.2408439 19.926862,1.7894428 20.421469,1.5720025 21.454003,1.6237592 c 0.982113,0.04923 1.681229,0.3765074 1.681229,0.7870368 0,0.1819867 -0.112991,0.3178477 -0.342601,0.411946 C 22.617312,2.894591 22.517299,2.903489 21.906515,2.90157 21.345456,2.89981 21.169022,2.885354 20.953269,2.8234639 Z M 12.939985,2.669603 C 12.377968,2.6001841 11.788953,2.3752223 11.582753,2.1512392 11.462007,2.0200778 11.446898,1.9842057 11.466711,1.8756926 c 0.0516,-0.2825911 0.290408,-0.3850494 0.897447,-0.3850379 0.918708,1.77e-5 2.074546,0.331955 2.265096,0.6504954 0.09074,0.1516909 0.03187,0.3621911 -0.130418,0.4662597 -0.111364,0.071417 -0.191711,0.081149 -0.716714,0.086806 -0.325209,0.00351 -0.704173,-0.00755 -0.842137,-0.02461 z M 5.091971,2.6238992 C 4.3292957,2.5713435 3.1571653,2.1983626 2.8970385,1.9254526 2.7471109,1.7681609 2.8031511,1.4915033 3.00018,1.4162717 3.2710853,1.312829 4.2331089,1.3823037 4.9121392,1.5543486 5.9631528,1.8206427 6.3726781,2.0787649 6.2598513,2.4038079 6.1794122,2.6355595 5.9335608,2.6818913 5.0919739,2.6238986 Z m 3.9419252,0.01735 C 8.818194,2.6107362 8.0951213,2.423891 7.8294451,2.3300135 7.4988245,2.2131881 7.2348719,2.0368019 7.1878207,1.9012477 7.1628548,1.8293143 7.1673258,1.7633204 7.2036445,1.6681174 7.2719701,1.4890069 7.4092844,1.4518889 8.0045767,1.4516148 8.9116581,1.4512319 10.232231,1.8190013 10.429115,2.1268945 10.542181,2.3037103 10.4689,2.5176839 10.26463,2.6072116 10.159541,2.6532695 10.004859,2.666778 9.6334146,2.6623375 9.3628063,2.6591064 9.0930223,2.6496117 9.0338912,2.641251 Z M 11.488639,0.95504596 C 11.207551,0.92650721 10.263427,0.70631513 9.9656228,0.59984029 9.1165988,0.29628599 8.8358342,0.03019 9.0614407,-0.25710205 c 0.065435,-0.0833112 0.126656,-0.10946286 0.3135625,-0.13391888 0.2342317,-0.0306485 0.9992498,0.034453 1.3969238,0.11887532 0.635544,0.13491982 1.43827,0.4678028 1.607298,0.66653046 0.13093,0.15393922 0.09804,0.39472441 -0.06665,0.4880137 -0.105716,0.0598798 -0.557414,0.0997056 -0.823936,0.0726474 z m 8.4393,-0.0877739 C 19.298719,0.6871694 19.010021,0.54000671 18.736403,0.25989611 c -0.09563,-0.097904 -0.116467,-0.14871724 -0.116467,-0.28409848 0,-0.13855402 0.01956,-0.18368879 0.122601,-0.28277632 0.157234,-0.15121681 0.384534,-0.20424437 0.875486,-0.20424437 0.320132,0 0.472895,0.0235446 0.902634,0.13912546 0.778777,0.20945558 1.232691,0.47862962 1.325269,0.78588975 0.03467,0.11510593 0.03072,0.15558183 -0.02571,0.26299128 -0.122811,0.23382459 -0.27672,0.28269683 -0.924739,0.29363917 -0.531969,0.008989 -0.60183,0.001526 -0.967561,-0.10314971 z m 4.185462,0.0195849 c -0.68209,-0.2461842 -0.939325,-0.62417594 -0.644526,-0.94708526 0.17695,-0.19381959 0.355301,-0.23626929 0.956627,-0.22768748 0.444341,0.00634 0.561399,0.0218121 0.806305,0.10657034 0.290676,0.10059906 0.556603,0.26060888 0.673263,0.40511029 0.100214,0.12412283 0.112361,0.3235934 0.02864,0.47011772 -0.134636,0.23563963 -0.236197,0.26566863 -0.935027,0.27646502 -0.57722,0.008916 -0.647669,0.002284 -0.885285,-0.0834901 z M 15.520152,0.7785491 C 14.891909,0.7028565 14.115889,0.37211665 13.984973,0.12425717 c -0.09349,-0.17700966 -0.04824,-0.34859249 0.120588,-0.45723171 0.108133,-0.0695792 0.183428,-0.0797776 0.572453,-0.077537 1.408781,0.008113 2.686242,0.61738784 2.245467,1.07095517 -0.04612,0.0474561 -0.138737,0.10352652 -0.205819,0.12459947 -0.144978,0.045543 -0.794857,0.0420191 -1.19751,-0.006498 z M 6.5970715,0.74222363 C 6.3605552,0.72774661 6.0864121,0.69640881 5.9878638,0.67258548 5.0516353,0.44625884 4.7310052,0.33402922 4.4605399,0.13797756 c -0.239786,-0.17381143 -0.2151252,-0.46424995 0.050552,-0.595444 0.3162011,-0.15614042 1.4852637,-0.0352808 2.3905797,0.24714151 0.2656512,0.0828724 0.7142777,0.3109487 0.8145025,0.41408355 0.1576905,0.16226745 0.073477,0.47016514 -0.1416717,0.51796067 -0.1695792,0.0376721 -0.5623595,0.0459117 -0.977432,0.0205042 z M 1.8846801,0.71911526 C 1.795989,0.71016837 1.4231655,0.68797864 1.1757596,0.59108262 0.92478105,0.49278833 0.95932025,0.5706528 0.21433332,0.24618144 -0.18824531,0.07084254 0.0197561,-0.37835303 0.47346186,-0.44404696 c 0.54418324,-0.0787943 0.78175974,-0.0706371 1.19620414,0.0443756 0.9446803,0.26216282 1.3259219,0.46907816 1.3259219,0.71963558 0,0.12812011 -0.081689,0.26413722 -0.1931058,0.32155766 -0.11749,0.0605473 -0.6448262,0.10513033 -0.917802,0.0775934 z"
         id="path9"
         sodipodi:nodetypes="sccssssscscssssssscscsssssssscsssccsccscscccsccccccssscccsscccssssssssccssssscssssssscsssccsssssssssssssssssssssssscsssssssssccsscsssssscssscccssscsssscscssssccssssccsssssssssscscssccssssssssscsssssssssssscsscssssscsscccsssssssssssssssssssssssssssssssssssscsssssssssscsssssssssssssssssssssssssssssssscssccsscscsssssscsssssssssssscsscssccsssssscsssscsssssssssssssssssssssssssssssssssssssssssssssssssccsssssssssssscssssscsssssccsscsssssscssscsccccssscsssssssssssssssssssscssscsssccscssscccssssssssssssscsscssscsccsssssssssssssssssssccscsscssscsccc"
         inkscape:label="dots" /><text
         xml:space="preserve"
         style="font-style:normal;font-variant:normal;font-weight:normal;font-stretch:normal;font-size:1.91702px;font-family:'Times New Roman';-inkscape-font-specification:'Times New Roman, ';text-align:start;writing-mode:lr-tb;direction:ltr;text-anchor:start;display:inline;opacity:1;fill:#bfbfbf;fill-opacity:1;stroke-width:0.264583"
         x="0.97772545"
         y="25.541771"
         id="text6"
         inkscape:label="text2"><tspan
           sodipodi:role="line"
           id="tspan6"
           style="font-size:1.91702px;fill:#bfbfbf;fill-opacity:1;stroke-width:0.264583"
           x="0.97772545"
           y="25.541771">(NDS/NDSL)</tspan></text><text
         xml:space="preserve"
         style="font-style:normal;font-variant:normal;font-weight:bold;font-stretch:normal;font-size:3.122px;font-family:P052;-inkscape-font-specification:'P052 Bold';text-align:start;writing-mode:lr-tb;direction:ltr;text-anchor:start;display:inline;opacity:1;fill:#bfbfbf;fill-opacity:1;stroke-width:0.264583"
         x="1.0029987"
         y="23.483673"
         id="text5"
         inkscape:label="text1"><tspan
           sodipodi:role="line"
           id="tspan5"
           style="font-style:normal;font-variant:normal;font-weight:normal;font-stretch:normal;font-size:3.122px;font-family:'Times New Roman';-inkscape-font-specification:'Times New Roman, ';fill:#bfbfbf;fill-opacity:1;stroke-width:0.264583"
           x="1.0029987"
           y="23.483673">Revolution for DS</tspan></text></g></g></svg>
