<?xml version="1.0" encoding="UTF-8" standalone="no"?>
<!-- Created with Inkscape (http://www.inkscape.org/) -->

<svg
   width="28mm"
   height="30mm"
   viewBox="0 0 28 30"
   version="1.1"
   id="svg1"
   xml:space="preserve"
   inkscape:version="1.4-beta (62f545b, 2024-04-22)"
   sodipodi:docname="R4 (Original).svg"
   inkscape:export-filename="R4 (Original).png"
   inkscape:export-xdpi="3855.72"
   inkscape:export-ydpi="3855.72"
   xmlns:inkscape="http://www.inkscape.org/namespaces/inkscape"
   xmlns:sodipodi="http://sodipodi.sourceforge.net/DTD/sodipodi-0.dtd"
   xmlns:xlink="http://www.w3.org/1999/xlink"
   xmlns="http://www.w3.org/2000/svg"
   xmlns:svg="http://www.w3.org/2000/svg"><sodipodi:namedview
     id="namedview1"
     pagecolor="#ffffff"
     bordercolor="#000000"
     borderopacity="0.25"
     inkscape:showpageshadow="2"
     inkscape:pageopacity="0.0"
     inkscape:pagecheckerboard="0"
     inkscape:deskcolor="#d1d1d1"
     inkscape:document-units="mm"
     showgrid="true"
     inkscape:zoom="2.8284271"
     inkscape:cx="57.452426"
     inkscape:cy="99.171726"
     inkscape:window-width="1920"
     inkscape:window-height="1014"
     inkscape:window-x="0"
     inkscape:window-y="0"
     inkscape:window-maximized="1"
     inkscape:current-layer="layer1"
     showguides="true"><inkscape:grid
       id="grid1"
       units="mm"
       originx="0"
       originy="0"
       spacingx="2"
       spacingy="2"
       empcolor="#0099e5"
       empopacity="0.30196078"
       color="#0099e5"
       opacity="0.14901961"
       empspacing="7"
       enabled="true"
       visible="true" /></sodipodi:namedview><defs
     id="defs1"><linearGradient
       id="linearGradient3"
       inkscape:collect="always"><stop
         style="stop-color:#000000;stop-opacity:1;"
         offset="0"
         id="stop1" /><stop
         style="stop-color:#b2b2b2;stop-opacity:1;"
         offset="1"
         id="stop2" /></linearGradient><linearGradient
       inkscape:collect="always"
       xlink:href="#linearGradient3"
       id="linearGradient5"
       x1="14"
       y1="20"
       x2="14"
       y2="30"
       gradientUnits="userSpaceOnUse" /><rect
       x="7.5590549"
       y="71.811024"
       width="109.60629"
       height="24.368109"
       id="rect15" /></defs><g
     inkscape:label="Layer 1"
     inkscape:groupmode="layer"
     id="layer1"><path
       d="M 0.99993896,0 C 0.44770189,3.3704848e-5 3.3704848e-5,0.44770189 0,0.99993896 V 27.999841 l 1.9998779,2.000395 H 26.999902 c 0.552439,-3.4e-5 1.000191,-0.448017 0.999939,-1.000456 V 0.99993896 C 27.999808,0.44770189 27.552139,3.3704848e-5 26.999902,0 Z"
       style="display:inline;fill:url(#linearGradient5);stroke-width:0.264583"
       id="path4"
       inkscape:label="Background" /><path
       d="M 8.6788898,16.402051 V 15.804068 H 6.9543208 5.2297539 L 4.4934697,14.900991 3.7571885,13.997914 3.6381287,13.998257 c -0.2544452,7.1e-4 -0.2378285,-0.03451 -0.2378285,0.504079 0,0.646714 -0.0062,0.637131 0.4222875,0.648823 l 0.2243398,0.0061 0.0074,0.323399 0.0074,0.3234 H 2.7808254 1.5 v -0.329489 -0.329501 h 0.2353769 c 0.1294594,0 0.2546041,-0.0068 0.2781033,-0.01516 0.1170505,-0.04155 0.1199544,-0.07799 0.1198513,-1.503003 -9.2e-5,-1.280916 -0.0026,-1.353585 -0.050022,-1.425442 -0.056126,-0.08513 -0.1401074,-0.106617 -0.4183507,-0.107071 l -0.1649555,-2.69e-4 v -0.366112 -0.366112 h 1.7034572 c 1.4517459,0 1.7335187,0.0057 1.9068896,0.03869 0.5048598,0.09602 0.9663747,0.454301 1.1428095,0.887178 0.048281,0.11847 0.054135,0.176537 0.045689,0.453739 -0.00891,0.291258 -0.0161,0.330099 -0.086266,0.463742 -0.1632503,0.310962 -0.5914026,0.617717 -0.9713809,0.695956 -0.083464,0.01718 -0.1517599,0.03905 -0.1517599,0.0486 0,0.04593 0.5574107,0.538052 0.6862169,0.605844 0.13028,0.06857 0.1675891,0.07642 0.3639258,0.07663 0.2172943,2.27e-4 0.2194467,-3.92e-4 0.3202097,-0.0913 0.114718,-0.103504 0.5086503,-0.509879 2.2181445,-2.288201 0.6581317,-0.68463 1.2126253,-1.248333 1.2322073,-1.252673 0.02963,-0.0066 0.0356,0.297347 0.0356,1.812255 v 1.820147 h 0.277125 0.277126 v 0.584926 0.584925 l -0.270528,0.0069 -0.270526,0.0069 -0.0071,0.591882 -0.0071,0.59188 H 9.3117763 8.6788148 Z m 0,-2.135158 V 13.803646 L 8.435877,14.053327 C 8.3022187,14.190652 8.0990276,14.399112 7.9843416,14.516573 L 7.775816,14.730138 H 8.2273534 8.6788898 Z M 4.4129027,13.153191 c 0.1605446,-0.05059 0.2933523,-0.167393 0.3303122,-0.29051 0.044319,-0.147616 0.035873,-0.319709 -0.020703,-0.421716 -0.1160099,-0.2092 -0.2729692,-0.277141 -0.675587,-0.292427 -0.3282548,-0.01246 -0.4878388,0.01619 -0.5836797,0.104828 -0.06169,0.05704 -0.062951,0.06705 -0.062951,0.498657 v 0.440444 h 0.4439795 c 0.3388007,0 0.4735046,-0.0093 0.568623,-0.03927 z"
       style="display:inline;fill:#ffffff;fill-opacity:1;stroke-width:0.254601"
       id="path1"
       inkscape:label="R4 logo" /><path
       style="fill:#e6e6e6;stroke-width:0.281337"
       d="m 58.573551,29.138501 c -0.03941,-0.01819 -0.109543,-0.07622 -0.155851,-0.128973 -0.292198,-0.332826 0.257116,-1.058047 0.807272,-1.065774 0.158379,-0.0021 0.201821,0.01375 0.295573,0.108706 0.196511,0.199044 0.144347,0.470899 -0.146966,0.765925 -0.256374,0.259651 -0.617756,0.404246 -0.800028,0.320116 z m 1.677171,-0.04486 c -0.219778,-0.068 -0.313874,-0.300211 -0.224135,-0.553077 0.05792,-0.163183 0.353193,-0.464996 0.553284,-0.565524 0.29246,-0.146948 0.563026,-0.09882 0.655828,0.116649 0.09595,0.222804 0.01967,0.458738 -0.225749,0.698042 -0.267541,0.260891 -0.542534,0.370967 -0.759228,0.30391 z m 1.542911,-0.0126 c -0.205503,-0.09546 -0.291374,-0.353309 -0.187951,-0.564385 0.249534,-0.509286 0.819906,-0.786374 1.10194,-0.535324 0.293614,0.261368 0.09685,0.741798 -0.415719,1.015063 -0.232931,0.124178 -0.364892,0.146597 -0.49827,0.08465 z m -4.770972,-0.06421 c -0.135407,-0.04175 -0.258046,-0.22483 -0.258248,-0.385509 -5.75e-4,-0.493458 0.854842,-1.02756 1.193912,-0.745402 0.100322,0.08349 0.153558,0.279476 0.117355,0.432082 -0.01215,0.0512 -0.111394,0.195148 -0.220538,0.319862 -0.280993,0.32108 -0.579515,0.456974 -0.832481,0.378967 z m 1.210531,-1.653761 c -0.172601,-0.09121 -0.247764,-0.312658 -0.183334,-0.540154 0.05715,-0.201824 0.299743,-0.483234 0.496407,-0.575851 0.125564,-0.05914 0.17605,-0.06463 0.291669,-0.03168 0.374203,0.106596 0.346443,0.651789 -0.05203,1.021911 -0.219282,0.203684 -0.349313,0.233276 -0.552709,0.125783 z m 1.479092,0.03885 c -0.04366,-0.0084 -0.120244,-0.06665 -0.170177,-0.129434 -0.230012,-0.289183 8.3e-5,-0.849902 0.426027,-1.038179 0.295663,-0.130689 0.557997,0.05479 0.557997,0.394541 0,0.156924 -0.02098,0.206564 -0.170182,0.402433 -0.226161,0.296925 -0.426721,0.412414 -0.643665,0.370639 z m 1.240814,-0.115812 c -0.08607,-0.08133 -0.115931,-0.146404 -0.130649,-0.284542 -0.01628,-0.152894 -0.0046,-0.201307 0.08048,-0.331071 0.350927,-0.535704 0.800496,-0.62713 0.972271,-0.197724 0.07593,0.189818 -0.0057,0.449105 -0.21557,0.685144 -0.233905,0.263001 -0.510766,0.313238 -0.706532,0.128193 z m 1.493037,-0.05562 c -0.09592,-0.156888 -0.102817,-0.277846 -0.02624,-0.460928 0.06549,-0.15661 0.08452,-0.173801 0.191177,-0.172716 0.194463,0.0019 0.24385,0.06919 0.24385,0.331858 0,0.20328 -0.01095,0.23907 -0.09439,0.308513 -0.123674,0.102911 -0.248972,0.100231 -0.314363,-0.0067 z m -3.444288,-1.789122 c -0.123564,-0.130718 -0.11821,-0.33505 0.01449,-0.553351 0.154717,-0.254508 0.265464,-0.345244 0.447932,-0.367003 0.139698,-0.01666 0.173374,-0.0058 0.257374,0.08307 0.08417,0.08904 0.09429,0.124338 0.07841,0.273376 -0.01129,0.10593 -0.05896,0.2312 -0.125114,0.328759 -0.218727,0.322565 -0.498177,0.420192 -0.673096,0.235143 z m 1.253951,0 c -0.129514,-0.137013 -0.119361,-0.341657 0.02851,-0.574429 0.215894,-0.339882 0.481844,-0.446531 0.655473,-0.26285 0.130455,0.138005 0.121069,0.365716 -0.02437,0.591179 -0.21455,0.332609 -0.483116,0.432812 -0.659607,0.2461 z m 1.306563,-0.01774 c -0.117644,-0.124459 -0.128648,-0.210094 -0.05193,-0.404314 0.186591,-0.472425 0.634518,-0.672977 0.790478,-0.353923 0.08152,0.16677 0.06331,0.312678 -0.06402,0.513143 -0.224906,0.354066 -0.482896,0.447812 -0.674517,0.245094 z m 0.476276,-1.616033 c -0.261422,-0.19371 -0.241164,-0.709381 0.03486,-0.887416 0.147299,-0.09501 0.211511,-0.09585 0.379773,-0.005 0.20852,0.112586 0.26618,0.202335 0.26927,0.419119 0.0021,0.161693 -0.01344,0.209041 -0.102641,0.308275 -0.198456,0.220822 -0.420779,0.28394 -0.581264,0.165024 z m -2.524174,-0.189684 c -0.129734,-0.07447 -0.206457,-0.239785 -0.206457,-0.444853 0,-0.227648 0.118065,-0.40764 0.31499,-0.48021 0.13807,-0.05088 0.161898,-0.04985 0.27005,0.01177 0.156618,0.08923 0.244958,0.255458 0.244958,0.460947 0,0.385792 -0.326654,0.622759 -0.623541,0.452343 z m 1.248659,-0.01983 c -0.191843,-0.159642 -0.249345,-0.407722 -0.151766,-0.654782 0.16701,-0.422851 0.681891,-0.368195 0.777243,0.0825 0.08897,0.420562 -0.33816,0.811369 -0.625477,0.572278 z m 1.31482,-1.58663 c -0.379983,-0.245107 -0.287208,-0.949425 0.12506,-0.949425 0.149728,0 0.399854,0.159103 0.470893,0.299531 0.115533,0.228369 -0.0054,0.533192 -0.262883,0.662432 -0.156354,0.07849 -0.194159,0.07706 -0.33307,-0.01255 z m -1.229367,0.0091 c -0.180577,-0.06983 -0.322444,-0.315123 -0.322444,-0.557508 0,-0.23285 0.162433,-0.439068 0.345846,-0.439068 0.264061,0 0.478176,0.246252 0.478176,0.549945 0,0.314125 -0.255625,0.541746 -0.501578,0.446631 z M 59.60882,21.918874 c -0.343531,-0.162766 -0.398788,-0.742596 -0.08702,-0.91315 0.181491,-0.0993 0.316043,-0.07443 0.46817,0.08651 0.217736,0.230347 0.233949,0.506198 0.04279,0.72812 -0.11626,0.134967 -0.271073,0.170945 -0.423932,0.09852 z m -0.293785,-1.822989 c -0.206725,-0.18402 -0.280839,-0.509194 -0.168454,-0.739102 0.166005,-0.339608 0.538311,-0.291194 0.702547,0.09136 0.116434,0.271203 0.07572,0.539676 -0.10537,0.694682 -0.09484,0.08117 -0.311443,0.05747 -0.428723,-0.04695 z m 1.128309,-0.05434 c -0.147555,-0.17278 -0.199492,-0.412554 -0.134494,-0.620902 0.05236,-0.167855 0.141402,-0.251675 0.29543,-0.278117 0.315605,-0.05419 0.57877,0.503735 0.405145,0.858925 -0.06657,0.13619 -0.15444,0.188749 -0.31555,0.188749 -0.0983,0 -0.149545,-0.0304 -0.250531,-0.148655 z m 1.289104,0.02454 c -0.329863,-0.329112 -0.202661,-0.937136 0.196056,-0.937136 0.213861,0 0.430782,0.297401 0.430782,0.590611 0,0.279163 -0.148624,0.467397 -0.370649,0.469427 -0.100617,9.31e-4 -0.161236,-0.02816 -0.256189,-0.122902 z m 0.152485,-1.504806 c -0.286315,-0.160125 -0.56208,-0.612 -0.519616,-0.851456 0.04148,-0.233928 0.27083,-0.367968 0.495429,-0.289552 0.195026,0.06809 0.534218,0.480409 0.602546,0.732445 0.09808,0.361782 -0.237777,0.599038 -0.578359,0.408563 z m -1.520027,-0.05828 c -0.150944,-0.08531 -0.366901,-0.310471 -0.488207,-0.509038 -0.186823,-0.305809 -0.124808,-0.641442 0.132694,-0.718182 0.331682,-0.09885 0.831289,0.386335 0.867007,0.841973 0.01341,0.171321 0.003,0.216858 -0.06872,0.304397 -0.106594,0.129845 -0.295153,0.164274 -0.442778,0.08086 z m -1.487811,-0.118786 c -0.281076,-0.198348 -0.535177,-0.578326 -0.536074,-0.801631 -5.74e-4,-0.117542 0.09216,-0.299668 0.176804,-0.347583 0.09745,-0.05517 0.275032,-0.0484 0.390764,0.01491 0.140763,0.07701 0.39306,0.377964 0.472995,0.56422 0.100708,0.234661 0.09034,0.389205 -0.035,0.521798 -0.122406,0.129495 -0.324898,0.150317 -0.469495,0.04829 z m 2.233047,-1.532598 c -0.258847,-0.08091 -0.661685,-0.626978 -0.668609,-0.906333 -0.0074,-0.299283 0.298954,-0.445294 0.568911,-0.271132 0.139067,0.08972 0.358233,0.334706 0.467121,0.522164 0.221341,0.381045 0.0027,0.770994 -0.367423,0.655301 z m 1.257501,-0.103957 c -0.283776,-0.217719 -0.513329,-0.578233 -0.515122,-0.809003 -0.0011,-0.159762 0.159862,-0.334547 0.308356,-0.334547 0.353786,0 0.729846,0.4303 0.729846,0.835108 0,0.194683 -0.04523,0.285534 -0.17842,0.358399 -0.144219,0.0789 -0.184274,0.0731 -0.34466,-0.04996 z m -2.719278,-0.0069 c -0.19671,-0.04579 -0.391988,-0.178722 -0.597464,-0.406727 -0.234514,-0.260227 -0.28574,-0.421806 -0.193535,-0.610437 0.154985,-0.317059 0.544193,-0.251549 0.946024,0.159234 0.223831,0.228814 0.29311,0.353335 0.292017,0.524858 -0.0013,0.236047 -0.206787,0.388994 -0.447042,0.333072 z m -1.50981,-0.04089 c -0.320714,-0.09831 -0.693559,-0.522728 -0.693559,-0.789489 0,-0.242953 0.18678,-0.379481 0.448185,-0.327603 0.152421,0.03025 0.540125,0.333496 0.65234,0.510233 0.14313,0.225426 0.0896,0.491437 -0.12188,0.605859 -0.08987,0.04861 -0.12929,0.04875 -0.285086,9.87e-4 z m 3.86725,-1.740921 c -0.192577,-0.103609 -0.463782,-0.35585 -0.531457,-0.494291 -0.08379,-0.171422 -0.06646,-0.329768 0.04955,-0.452489 0.227931,-0.241129 0.585814,-0.15651 0.988339,0.233685 l 0.238593,0.231287 -0.01066,0.190133 c -0.0086,0.155538 -0.02832,0.204032 -0.107706,0.266525 -0.145801,0.114779 -0.438249,0.126515 -0.626656,0.02515 z m -5.156186,-0.118416 c -0.258727,-0.107969 -0.598124,-0.40934 -0.691984,-0.614456 -0.08984,-0.196333 -0.07449,-0.316142 0.05729,-0.447035 0.193471,-0.19217 0.596716,-0.07477 0.964443,0.280763 0.327958,0.317092 0.388539,0.548461 0.19673,0.751376 -0.126137,0.133438 -0.259275,0.140862 -0.526478,0.02936 z m 1.697512,0.02407 c -0.290684,-0.112956 -0.678243,-0.47785 -0.777256,-0.731801 -0.04249,-0.10894 -0.04156,-0.142586 0.0067,-0.24979 0.160019,-0.354985 0.707748,-0.221191 1.152173,0.281446 0.207927,0.235161 0.251049,0.347729 0.198153,0.517278 -0.06855,0.21978 -0.298345,0.29225 -0.579831,0.182867 z m 1.510014,0.0054 c -0.278546,-0.105332 -0.605829,-0.481554 -0.605829,-0.696414 0,-0.119659 0.09213,-0.301507 0.177151,-0.349639 0.11562,-0.06547 0.387662,-0.04512 0.547075,0.04093 0.229057,0.123621 0.519877,0.451364 0.549689,0.619476 0.05809,0.327571 -0.290126,0.528577 -0.668086,0.385652 z m -2.952509,-1.682004 c -0.500225,-0.189421 -0.831414,-0.630122 -0.689875,-0.917999 0.193184,-0.392904 0.854346,-0.343757 1.26842,0.09429 0.132215,0.13987 0.194011,0.238901 0.211849,0.339501 0.07028,0.396368 -0.347102,0.652067 -0.790394,0.484208 z m 2.015603,-0.02553 c -0.349069,-0.131798 -0.715681,-0.52548 -0.744131,-0.799078 -0.01863,-0.179228 0.0075,-0.261328 0.122204,-0.382582 0.106755,-0.112934 0.14445,-0.128865 0.304921,-0.128865 0.216328,0 0.432519,0.09786 0.648734,0.293644 0.249758,0.226163 0.357618,0.411122 0.357618,0.613248 0,0.371715 -0.303387,0.549358 -0.689346,0.403633 z m -3.651382,-0.07397 c -0.567627,-0.246993 -0.976515,-0.676777 -0.910121,-0.956628 0.06551,-0.276124 0.356473,-0.317718 0.766906,-0.109635 0.272839,0.138325 0.65044,0.480397 0.745977,0.675784 0.10612,0.217039 -0.05293,0.481476 -0.288461,0.479579 -0.06138,-5.21e-4 -0.20282,-0.0406 -0.314301,-0.0891 z m 5.325977,-0.08445 c -0.328469,-0.177287 -0.528946,-0.430829 -0.52589,-0.665087 0.0027,-0.207082 0.08396,-0.323978 0.260088,-0.37415 0.267572,-0.07621 0.559015,0.05836 0.838486,0.387202 0.13425,0.157962 0.16177,0.215864 0.16177,0.340345 0,0.189429 -0.04611,0.280708 -0.178416,0.35308 -0.152602,0.08348 -0.352209,0.06863 -0.556038,-0.04139 z m 1.583807,-0.207988 c -0.252833,-0.220476 -0.308549,-0.473477 -0.148562,-0.67462 0.184715,-0.232233 0.448693,-0.181411 0.591055,0.113788 0.09978,0.206917 0.09108,0.417697 -0.02314,0.561336 -0.120698,0.151741 -0.24491,0.151593 -0.41933,-5.22e-4 z m -0.188387,-1.283142 c -0.253005,-0.09529 -0.388939,-0.1742 -0.536916,-0.311648 -0.289243,-0.268662 -0.312575,-0.590409 -0.0531,-0.732352 0.148082,-0.08101 0.3386,-0.06995 0.622895,0.03619 0.327736,0.122347 0.507608,0.254017 0.595234,0.435725 0.108274,0.224515 0.09492,0.364214 -0.04946,0.516928 -0.1431,0.15139 -0.286807,0.16509 -0.578652,0.05516 z M 53.66523,11.250586 c -0.15764,-0.05772 -0.359169,-0.144583 -0.447841,-0.19303 -0.200151,-0.109353 -0.552244,-0.392892 -0.625748,-0.50391 -0.133779,-0.202057 -0.01671,-0.493023 0.214373,-0.532691 0.279332,-0.04795 0.93822,0.208238 1.334796,0.518999 0.369497,0.289541 0.450444,0.508742 0.261632,0.708485 -0.08759,0.09267 -0.133025,0.110487 -0.27766,0.10894 -0.09512,-10e-4 -0.301914,-0.04908 -0.459552,-0.106793 z m 2.077973,0.05542 c -0.331724,-0.111455 -0.722555,-0.380178 -0.849808,-0.584306 -0.119442,-0.191593 -0.05795,-0.425971 0.139867,-0.532986 0.214412,-0.116 0.735719,0.01463 1.094731,0.274307 0.338425,0.244792 0.459157,0.49027 0.348607,0.708797 -0.08869,0.175306 -0.426857,0.237181 -0.733397,0.134188 z m 4.203828,-0.01748 c -0.342726,-0.119381 -0.637706,-0.336248 -0.773193,-0.568446 -0.10634,-0.182244 -0.101666,-0.282482 0.01986,-0.42637 0.143684,-0.170123 0.36525,-0.187938 0.717058,-0.05766 0.46763,0.17317 0.830337,0.512891 0.830337,0.777713 0,0.04342 -0.04566,0.133012 -0.101462,0.199084 -0.08614,0.101989 -0.130788,0.122112 -0.295573,0.133244 -0.123644,0.0083 -0.267778,-0.01255 -0.397025,-0.05757 z m -1.954526,-0.02408 c -0.501319,-0.146573 -1.013265,-0.558931 -1.013265,-0.816154 0,-0.08124 0.03414,-0.154371 0.109134,-0.233694 0.107304,-0.113519 0.114049,-0.115164 0.403053,-0.09833 0.372588,0.02171 0.746713,0.195134 1.001512,0.46427 0.149857,0.158288 0.170178,0.199057 0.170178,0.341396 0,0.124112 -0.02194,0.18484 -0.09445,0.261563 -0.05194,0.05496 -0.114423,0.09993 -0.13883,0.09993 -0.0244,0 -0.09073,0.008 -0.147381,0.01784 -0.05666,0.0098 -0.187128,-0.0067 -0.289949,-0.03682 z M 61.314326,9.6520878 C 61.061963,9.5565018 60.668073,9.2727333 60.53871,9.0933102 60.398621,8.8990103 60.399965,8.6949466 60.54221,8.5655303 c 0.0929,-0.084528 0.1294,-0.093115 0.341921,-0.080411 0.299024,0.017873 0.61217,0.175673 0.908337,0.4577223 0.1868,0.1778955 0.211461,0.2186602 0.228386,0.3775059 0.01715,0.160956 0.0084,0.1891807 -0.09022,0.2935902 -0.132995,0.1406964 -0.315673,0.1520038 -0.616283,0.03815 z M 53.866301,9.5196948 C 53.478219,9.4057439 52.996459,9.0641277 52.875832,8.8173506 52.791142,8.6441045 52.810381,8.5226676 52.945101,8.38015 53.064791,8.2535332 53.072303,8.2512848 53.3757,8.2512848 c 0.51133,0 0.977472,0.2133224 1.32499,0.606359 0.138783,0.1569596 0.164749,0.2101437 0.164749,0.3374426 0,0.1050825 -0.02633,0.1835114 -0.08644,0.2574594 -0.08128,0.1000054 -0.105315,0.1068642 -0.403058,0.1150843 -0.196006,0.00537 -0.390143,-0.012844 -0.509641,-0.047932 z m 2.593447,0.021414 C 56.083635,9.4397085 55.556845,9.1007243 55.45656,8.8955655 55.318548,8.6132252 55.461181,8.3563863 55.780894,8.31125 c 0.368529,-0.052017 1.003068,0.2223333 1.298533,0.5614334 0.0815,0.093533 0.158095,0.2118703 0.170221,0.2629718 0.02968,0.125129 -0.06692,0.3132146 -0.197578,0.3846968 -0.110159,0.060268 -0.407178,0.07067 -0.592322,0.020752 z M 58.582799,9.486062 C 58.277654,9.3721265 58.027508,9.1832351 57.936808,8.9982574 c -0.06381,-0.1301511 -0.06575,-0.1569844 -0.0205,-0.2842615 0.06454,-0.1815718 0.231173,-0.2730621 0.497453,-0.2731408 0.582485,-1.731e-4 1.252522,0.3972055 1.252522,0.7428316 0,0.2908783 -0.148238,0.3945428 -0.562497,0.3933576 C 58.902569,9.5764689 58.756721,9.5509934 58.5828,9.4860595 Z M 51.443521,9.3911201 C 51.095685,9.2636269 50.968649,9.1965147 50.700028,8.9983341 50.362314,8.7491822 50.269538,8.5075761 50.433934,8.3053847 c 0.116373,-0.1431215 0.346075,-0.1603137 0.757772,-0.056718 0.44699,0.1124779 0.809058,0.3057061 1.063697,0.567671 0.252136,0.2593916 0.276566,0.3932953 0.104891,0.5749101 -0.09737,0.1030082 -0.123161,0.1105884 -0.367229,0.1079356 -0.188708,-0.00208 -0.343197,-0.032431 -0.549544,-0.1080633 z M 62.407052,9.2775423 c -0.09642,-0.060419 -0.107211,-0.086059 -0.104895,-0.2492236 0.0023,-0.1499644 0.02002,-0.1977543 0.102041,-0.2723716 0.06783,-0.061729 0.123953,-0.083042 0.176549,-0.067046 0.147471,0.044852 0.256283,0.157308 0.290487,0.3002195 0.03201,0.1337472 0.0267,0.1502275 -0.08117,0.2522034 -0.131123,0.1239353 -0.228347,0.1331293 -0.383009,0.036218 z M 60.490302,7.8013087 C 59.802977,7.5937606 59.343834,7.2727455 59.343834,6.9997401 c 0,-0.059976 0.03841,-0.1559176 0.08569,-0.2140823 0.07676,-0.094419 0.113471,-0.1068837 0.352258,-0.1196399 0.332368,-0.017759 0.627743,0.057983 1.015054,0.2602759 0.524527,0.2739582 0.700349,0.5802443 0.471852,0.8219705 -0.08019,0.084821 -0.132436,0.1031311 -0.320655,0.1123498 -0.140965,0.0069 -0.311748,-0.015222 -0.457739,-0.059306 z M 52.007616,7.7173261 C 51.315751,7.5636217 50.750889,7.2450903 50.686129,6.9721268 c -0.03011,-0.1268939 0.05392,-0.30788 0.173248,-0.3731582 0.364021,-0.1991418 1.66699,0.1769888 1.999037,0.5770658 0.18943,0.228239 0.125376,0.504433 -0.134703,0.5808468 -0.184283,0.054143 -0.330751,0.046052 -0.716095,-0.039555 z m 2.83991,0.0031 c -1.018952,-0.235457 -1.545695,-0.6651815 -1.269943,-1.0360395 0.11842,-0.159263 0.303061,-0.1905716 0.688662,-0.1167735 0.626949,0.1199879 1.116747,0.3260111 1.376892,0.5791614 0.134307,0.1306969 0.17206,0.2528482 0.121567,0.3933446 -0.08458,0.2353458 -0.405753,0.2984836 -0.917178,0.1803057 z m 2.776605,-0.00156 C 57.289039,7.6273401 56.824994,7.388224 56.647838,7.2158059 c -0.106579,-0.103732 -0.13435,-0.158444 -0.13435,-0.264681 0,-0.073655 0.01009,-0.1615282 0.02224,-0.1952728 0.128293,-0.3536845 1.299041,-0.1214817 1.816368,0.3602537 0.139321,0.1297364 0.167698,0.1784849 0.167698,0.2880872 0,0.3666436 -0.30857,0.4750547 -0.895677,0.3146808 z M 49.204748,7.663659 C 48.714558,7.5586488 47.987234,7.2169939 47.749995,6.9802944 47.596226,6.8268714 47.585847,6.6630385 47.720861,6.5202116 c 0.09016,-0.095382 0.101728,-0.097376 0.456795,-0.078703 0.822097,0.043234 1.994429,0.6291122 1.994429,0.9967246 0,0.053002 -0.03958,0.1382315 -0.08795,0.1893986 -0.07907,0.083653 -0.116091,0.092673 -0.367226,0.08947 -0.153609,-0.00192 -0.384085,-0.026013 -0.512166,-0.053447 z M 62.241063,7.5589968 c -0.589687,-0.322936 -0.48737,-0.8616766 0.163647,-0.8616766 0.177733,0 0.20939,0.013101 0.323592,0.1339188 0.116927,0.1236908 0.126591,0.1513808 0.126591,0.3625567 0,0.2773121 -0.04012,0.3651939 -0.198781,0.4353212 -0.16094,0.071137 -0.155405,0.072072 -0.415049,-0.07012 z M 62.080592,6.1524371 C 61.79524,6.040221 61.553024,5.8884148 61.460255,5.7636489 61.280695,5.5221558 61.439218,5.2115622 61.768693,5.159292 c 0.261693,-0.041515 0.711257,0.00468 0.844074,0.086747 0.33353,0.2060718 0.372472,0.6712629 0.07678,0.9173137 -0.124602,0.1036893 -0.326749,0.1000656 -0.608961,-0.010913 z M 52.95441,5.9753865 C 52.309214,5.8608264 51.629265,5.5045403 51.530299,5.2291687 c -0.04913,-0.1366701 0.04144,-0.3257033 0.192314,-0.401443 0.241646,-0.1213071 0.81219,-0.074535 1.367262,0.1120812 0.589229,0.1981026 0.918932,0.4129813 0.971108,0.6329041 0.03399,0.1432572 -0.08223,0.3364908 -0.2363,0.3928661 -0.139354,0.050993 -0.608549,0.056282 -0.870273,0.0098 z m 3.253707,0.00469 C 55.734487,5.9000105 55.154966,5.6460057 54.999253,5.4502393 54.81733,5.2215164 54.906506,4.9221776 55.180556,4.8416577 c 0.238574,-0.070096 0.72277,-0.046959 1.086505,0.051918 0.647985,0.176147 0.998796,0.4141242 0.998796,0.677546 0,0.1968103 -0.02904,0.249256 -0.184463,0.3331382 -0.160396,0.086568 -0.589404,0.1238176 -0.873277,0.075826 z m 3.243199,-0.00341 c -0.639073,-0.067717 -1.218124,-0.389154 -1.218124,-0.6761938 0,-0.2471436 0.210001,-0.3855079 0.626859,-0.4130207 0.726531,-0.047951 1.558597,0.306121 1.558597,0.6632361 0,0.322589 -0.376862,0.4885454 -0.967332,0.4259784 z M 46.393877,5.8410138 C 45.849339,5.7350416 45.670254,5.6772773 45.277564,5.4809544 44.809362,5.246876 44.651586,4.9799922 44.842791,4.7455211 c 0.143497,-0.1759667 0.446104,-0.2092313 0.996847,-0.1095807 0.688251,0.1245307 1.466443,0.4361006 1.674553,0.670451 0.179327,0.2019379 0.06977,0.5034555 -0.211638,0.582472 -0.224206,0.062954 -0.382014,0.054645 -0.908676,-0.04785 z m 3.163279,-0.014837 c -0.450922,-0.080412 -0.676649,-0.1543031 -1.01044,-0.3307652 -0.321,-0.1696991 -0.416782,-0.2723821 -0.416782,-0.4468096 0,-0.2893462 0.241046,-0.3909795 0.823556,-0.3472376 0.529848,0.039787 0.975043,0.1635481 1.448863,0.4027746 0.2708,0.1367228 0.378791,0.2633364 0.378791,0.4441044 0,0.341403 -0.38185,0.4281109 -1.223988,0.2779334 z m 12.49163,-1.315246 c -0.762958,-0.1832154 -1.37935,-0.553004 -1.37935,-0.8275052 0,-0.1557659 0.171277,-0.3133251 0.410585,-0.3777032 0.274025,-0.073716 0.322014,-0.072619 0.83085,0.018977 0.715145,0.1287364 0.944022,0.3122457 0.944022,0.7568875 0,0.1742009 -0.01447,0.2128803 -0.121812,0.3264783 -0.116008,0.1227287 -0.133499,0.1286556 -0.367228,0.1244685 -0.134978,-0.00243 -0.277661,-0.01214 -0.317067,-0.021603 z M 57.961485,4.2726401 c -0.08047,-0.01805 -0.27394,-0.077986 -0.429926,-0.1331908 -0.654873,-0.2317636 -0.895293,-0.573819 -0.613128,-0.8723201 0.151465,-0.1602357 0.417369,-0.2474605 0.831095,-0.2726236 0.518112,-0.031512 1.274183,0.1770739 1.558172,0.4298725 0.315217,0.2805933 0.248986,0.6077802 -0.160913,0.7949576 -0.163729,0.074764 -0.934987,0.1094496 -1.1853,0.053304 z M 54.668389,4.1585495 C 54.13212,4.106759 53.372611,3.8363377 53.207347,3.6383491 53.025282,3.420232 53.081926,3.140791 53.332604,3.0204289 c 0.124414,-0.059737 0.234931,-0.073809 0.583416,-0.074288 0.360712,-5.202e-4 0.49337,0.017068 0.824024,0.109102 0.506347,0.1409362 0.75606,0.2594073 0.942727,0.4472623 0.111503,0.1122121 0.15,0.1803303 0.15,0.265416 0,0.1477529 -0.113485,0.2986901 -0.260306,0.3462084 -0.172214,0.055737 -0.579622,0.075755 -0.904076,0.04442 z M 50.8294,4.1179085 C 50.371983,4.0548372 49.682547,3.8002861 49.441263,3.6053849 49.164766,3.3820402 49.184551,3.0896542 49.485202,2.95609 49.590594,2.909268 49.709418,2.901876 50.08252,2.91893 c 1.009303,0.046135 2.060062,0.4944399 2.060062,0.8789213 0,0.1273405 -0.130228,0.2768493 -0.279291,0.3206466 -0.151858,0.044618 -0.708317,0.044302 -1.033885,-6.026e-4 z M 47.323824,4.0412536 C 46.510825,3.8914015 45.705556,3.607519 45.492312,3.3955878 c -0.114926,-0.1142198 -0.11368,-0.2953392 0.0028,-0.4111334 0.08621,-0.085672 0.09971,-0.087086 0.635929,-0.066559 0.482321,0.018462 0.614854,0.039009 1.107881,0.171745 0.807125,0.217301 1.320904,0.494061 1.320904,0.7115405 0,0.1002203 -0.08169,0.2356978 -0.166857,0.2767544 -0.129732,0.062532 -0.622669,0.04562 -1.069179,-0.036681 z m -3.676996,-0.06897 C 43.476742,3.933001 43.194605,3.8572287 43.019851,3.8038997 c -0.174752,-0.053328 -0.398344,-0.1076933 -0.496869,-0.12081 -0.43923,-0.058476 -0.898694,-0.2640662 -0.935339,-0.418525 -0.03337,-0.1406858 -0.0011,-0.2512464 0.09594,-0.3275048 0.188953,-0.1486528 1.205014,-0.075147 1.950034,0.1410748 0.577869,0.167709 1.065611,0.4122125 1.095487,0.549161 0.02796,0.1281484 -0.02993,0.2956396 -0.119725,0.3464859 -0.134348,0.076063 -0.630081,0.075291 -0.962557,-0.00151 z M 60.799537,2.5630965 C 60.210849,2.4100949 59.881241,2.1670721 59.881241,1.8860279 c 0,-0.1829347 0.09455,-0.3111524 0.313627,-0.4252862 0.153816,-0.080135 0.217896,-0.088553 0.671621,-0.088224 0.557868,3.698e-4 0.872063,0.070394 1.269984,0.2828944 0.551123,0.2943133 0.510358,0.766648 -0.08052,0.9330713 -0.273404,0.077005 -0.912104,0.064099 -1.256412,-0.025389 z M 52.877031,2.4524567 c -0.640446,-0.099079 -1.340585,-0.3585486 -1.565989,-0.5803509 -0.17754,-0.1747043 -0.15975,-0.4055121 0.04334,-0.5622708 0.197959,-0.1528032 0.832867,-0.1723707 1.558481,-0.048031 0.777995,0.1333146 1.34352,0.4614056 1.34352,0.779451 0,0.1465046 -0.155781,0.3142894 -0.343182,0.3696295 -0.196252,0.057954 -0.779118,0.081339 -1.036166,0.041572 z m 3.49716,-0.039714 C 55.850584,2.2676781 55.533802,2.0702601 55.471472,1.8501729 55.34803,1.4143062 55.842518,1.2043487 56.874806,1.2543243 c 0.981881,0.047536 1.680831,0.3635505 1.680831,0.759952 0,0.1757239 -0.112965,0.3069095 -0.342519,0.3977696 -0.175278,0.069376 -0.275268,0.077968 -0.885906,0.076116 -0.560927,-0.0017 -0.737319,-0.015658 -0.953021,-0.075419 z m -8.01138,-0.1485655 c -0.561883,-0.06703 -1.150759,-0.28425 -1.35691,-0.5005251 -0.120718,-0.1266476 -0.135822,-0.1612852 -0.116014,-0.266064 0.05159,-0.2728661 0.29034,-0.3717985 0.897234,-0.3717874 0.91849,1.72e-5 2.074054,0.3205313 2.264558,0.6281096 0.09072,0.1464706 0.03186,0.3497267 -0.130387,0.4502139 -0.111337,0.06896 -0.191666,0.078356 -0.716544,0.083819 -0.325131,0.00339 -0.704005,-0.0073 -0.841937,-0.023763 z m -7.84615,-0.044131 C 39.754167,2.1692992 38.582315,1.8091538 38.32225,1.5456358 38.172358,1.393757 38.228385,1.1266201 38.425367,1.0539775 c 0.270841,-0.0998828 1.232636,-0.032799 1.911505,0.1333253 1.050764,0.2571299 1.460192,0.5063691 1.347392,0.8202262 -0.08042,0.2237762 -0.326213,0.2685136 -1.1676,0.2125166 z M 44.45765,2.236799 C 44.241999,2.2073362 43.519098,2.0269211 43.253485,1.9362741 42.922943,1.8234691 42.659053,1.653153 42.612013,1.5222638 c -0.02496,-0.069458 -0.02049,-0.1331807 0.01582,-0.2251075 0.06831,-0.1729467 0.205591,-0.2087873 0.800742,-0.209052 0.906866,-3.696e-4 2.227125,0.3547434 2.423963,0.6520409 0.113039,0.170731 0.03978,0.377341 -0.164446,0.4637877 -0.105065,0.044473 -0.25971,0.057517 -0.631066,0.053229 -0.270544,-0.00312 -0.540264,-0.012288 -0.599381,-0.020361 z m 2.45416,-1.62817471 c -0.281022,-0.0275567 -1.224921,-0.24017111 -1.522655,-0.34298185 -0.848822,-0.29310785 -1.12952,-0.55004652 -0.903967,-0.82745181 0.06542,-0.0804442 0.126626,-0.10569585 0.313488,-0.12931025 0.234176,-0.0295938 0.999013,0.0332674 1.396592,0.1147844 0.635393,0.13027673 1.437928,0.45170402 1.606916,0.64359274 0.130899,0.14864167 0.09802,0.38114051 -0.06663,0.47121941 -0.105691,0.0578189 -0.557282,0.0962742 -0.82374,0.0701477 z m 8.437295,-0.084753 C 54.720036,0.3499663 54.431406,0.20786795 54.157852,-0.06260297 c -0.09561,-0.09453479 -0.116439,-0.14359934 -0.116439,-0.27432162 0,-0.13378588 0.01956,-0.1773674 0.122572,-0.27304497 0.157197,-0.1460129 0.384442,-0.19721558 0.875278,-0.19721558 0.320057,0 0.472783,0.0227344 0.90242,0.13433764 0.778591,0.20224747 1.232398,0.46215825 1.324954,0.75884445 0.03467,0.1111447 0.03072,0.1502277 -0.02569,0.25394085 -0.122783,0.22577773 -0.276655,0.27296814 -0.92452,0.283534 -0.531843,0.008678 -0.601688,0.001467 -0.967332,-0.0995995 z m 4.184468,0.0189114 c -0.681928,-0.23771294 -0.939102,-0.60269663 -0.644372,-0.91449347 0.176907,-0.18714956 0.355215,-0.22813841 0.9564,-0.21985193 0.444235,0.006122 0.561266,0.0210615 0.806113,0.10290286 0.290607,0.0971371 0.556471,0.25164039 0.673102,0.39116899 0.100191,0.11985131 0.112335,0.31245738 0.02864,0.45393927 -0.134603,0.22753043 -0.23614,0.25652595 -0.934804,0.26695084 -0.577083,0.008607 -0.647515,0.0022 -0.885075,-0.0806158 z M 50.942365,0.43820166 c -0.628093,-0.0730881 -1.403929,-0.39244562 -1.534814,-0.63177535 -0.09347,-0.17091812 -0.04823,-0.33659616 0.120559,-0.44149672 0.108107,-0.0671847 0.183384,-0.0770322 0.572317,-0.0748688 1.408446,0.007834 2.685605,0.59614129 2.244934,1.03409974 -0.04611,0.0458229 -0.138704,0.0999641 -0.20577,0.12031157 -0.144944,0.0439765 -0.794669,0.0405734 -1.197226,-0.006272 z m -8.920961,-0.0350758 c -0.23646,-0.0139788 -0.510538,-0.0442381 -0.609063,-0.0672416 -0.936006,-0.21853796 -1.25656,-0.32690531 -1.526961,-0.51621013 -0.239729,-0.16782996 -0.215074,-0.44827344 0.05054,-0.57495263 0.316126,-0.15076706 1.484911,-0.0340666 2.390012,0.23863648 0.265588,0.0800205 0.714108,0.30024784 0.814309,0.39983344 0.157653,0.15668324 0.07346,0.45398504 -0.141638,0.50013579 -0.169539,0.0363757 -0.562226,0.0443318 -0.9772,0.0197986 z m -4.711272,-0.0223131 c -0.08867,-0.008639 -0.461405,-0.0300651 -0.708752,-0.12362658 -0.250919,-0.0949116 -0.216388,-0.0197267 -0.961198,-0.33303185 -0.402483,-0.16930486 -0.194531,-0.60304198 0.259067,-0.66647515 0.544054,-0.0760827 0.781574,-0.0682062 1.19592,0.0428484 0.944456,0.25314085 1.325607,0.45293548 1.325607,0.69487032 0,0.12371106 -0.08167,0.25504724 -0.19306,0.31049163 -0.117462,0.0584645 -0.644673,0.1015124 -0.917584,0.0749232 z"
       id="path9"
       sodipodi:nodetypes="sccssssscscssssssscscsssssssscsssccsccscscccsccccccssscccsscccssssssssccssssscssssssscsssccsssssssssssssssssssssssscsssssssssccsscsssssscssscccssscsssscscssssccssssccsssssssssscscssccssssssssscsssssssssssscsscssssscsscccsssssssssssssssssssssssssssssssssssscsssssssssscsssssssssssssssssssssssssssssssscssccsscscsssssscsssssssssssscsscssccsssssscsssscsssssssssssssssssssssssssssssssssssssssssssssssssccsssssssssssscssssscsssssccsscsssssscssscsccccssscsssssssssssssssssssscssscsssccscssscccssssssssssssscsscssscsccsssssssssssssssssssccscsscssscsccc"
       inkscape:label="dots"
       transform="translate(-35.163223,0.83752992)" /><text
       xml:space="preserve"
       style="font-style:normal;font-variant:normal;font-weight:normal;font-stretch:normal;font-size:2px;font-family:'Times New Roman';-inkscape-font-specification:'Times New Roman, ';text-align:start;writing-mode:lr-tb;direction:ltr;text-anchor:start;display:none;opacity:1;fill:#bfbfbf;fill-opacity:1;stroke-width:0.264583"
       x="1.4179688"
       y="25.388672"
       id="text6"
       inkscape:label="text2"><tspan
         sodipodi:role="line"
         id="tspan6"
         style="font-size:2px;fill:#bfbfbf;fill-opacity:1;stroke-width:0.264583"
         x="1.4179688"
         y="25.388672">(NDS/NDSL)</tspan></text><text
       xml:space="preserve"
       style="font-style:normal;font-variant:normal;font-weight:bold;font-stretch:normal;font-size:3px;font-family:P052;-inkscape-font-specification:'P052 Bold';text-align:start;writing-mode:lr-tb;direction:ltr;text-anchor:start;display:none;opacity:1;fill:#bfbfbf;fill-opacity:1;stroke-width:0.264583"
       x="1.4487305"
       y="23.583008"
       id="text5"
       inkscape:label="text1"><tspan
         sodipodi:role="line"
         id="tspan5"
         style="font-style:normal;font-variant:normal;font-weight:normal;font-stretch:normal;font-size:3px;font-family:'Times New Roman';-inkscape-font-specification:'Times New Roman, ';fill:#bfbfbf;fill-opacity:1;stroke-width:0.264583"
         x="1.4487305"
         y="23.583008">Revolution for DS</tspan></text><path
       d="m 2.0390625,25.780273 v 0.03613 Q 1.8916016,25.742187 1.7929687,25.642578 1.6523437,25.500977 1.5761719,25.308594 1.5,25.116211 1.5,24.90918 1.5,24.606445 1.6494141,24.357422 1.7988281,24.107422 2.0390625,24 v 0.04102 q -0.1201172,0.06641 -0.1972656,0.18164 -0.077149,0.115235 -0.1152344,0.291992 -0.038086,0.176758 -0.038086,0.369141 0,0.208984 0.032226,0.379883 0.025391,0.134765 0.061524,0.21582 0.036133,0.08203 0.09668,0.157227 0.061523,0.0752 0.1601563,0.143554 z m 0.018555,-1.71582 h 0.359375 l 0.8095703,0.993164 v -0.763672 q 0,-0.12207 -0.027344,-0.152343 -0.036133,-0.04102 -0.1142579,-0.04102 h -0.045898 v -0.03613 H 3.5 v 0.03613 H 3.453125 q -0.083984,0 -0.1191406,0.05078 Q 3.3125,24.182617 3.3125,24.293945 v 1.116211 H 3.2773438 L 2.4042969,24.34375 v 0.81543 q 0,0.12207 0.026367,0.152343 0.037109,0.04102 0.1142578,0.04102 h 0.046875 v 0.03613 H 2.1308594 v -0.03613 h 0.045898 q 0.084961,0 0.1201172,-0.05078 0.021484,-0.03125 0.021484,-0.142578 v -0.920899 q -0.057617,-0.06738 -0.087891,-0.08887 -0.029297,-0.02148 -0.086914,-0.04004 -0.02832,-0.0088 -0.085937,-0.0088 z M 3.5625,25.388672 v -0.03613 h 0.049805 q 0.083984,0 0.1191406,-0.05371 0.021484,-0.03223 0.021484,-0.144531 v -0.855469 q 0,-0.124023 -0.027344,-0.155273 Q 3.6875,24.100586 3.6123047,24.100586 H 3.5625 v -0.03613 h 0.5390625 q 0.296875,0 0.4511719,0.06738 0.1552734,0.06738 0.2490234,0.224609 0.094727,0.157227 0.094727,0.363282 0,0.276367 -0.1679688,0.461914 -0.1884765,0.207031 -0.5742187,0.207031 z m 0.3779297,-0.0957 q 0.1240234,0.02734 0.2080078,0.02734 0.2265625,0 0.3759766,-0.159179 0.149414,-0.15918 0.149414,-0.431641 0,-0.274414 -0.149414,-0.432617 Q 4.375,24.138672 4.140625,24.138672 q -0.087891,0 -0.2001953,0.02832 z M 5.8896484,24.03418 v 0.458007 h -0.036133 q -0.017578,-0.131835 -0.063476,-0.20996 -0.044922,-0.07813 -0.1289063,-0.124024 -0.083984,-0.0459 -0.1738281,-0.0459 -0.1015625,0 -0.1679688,0.0625 -0.066406,0.06152 -0.066406,0.140625 0,0.06055 0.041992,0.110351 0.060547,0.07324 0.2880859,0.195313 0.1855469,0.09961 0.2529297,0.15332 0.068359,0.05273 0.1044922,0.125 0.037109,0.07227 0.037109,0.151367 0,0.150391 -0.1171875,0.259766 -0.116211,0.108398 -0.2998047,0.108398 -0.057617,0 -0.1083985,-0.0088 -0.030273,-0.0049 -0.1259765,-0.03516 -0.094727,-0.03125 -0.1201172,-0.03125 -0.024414,0 -0.039063,0.01465 -0.013672,0.01465 -0.020508,0.06055 h -0.036133 v -0.454101 h 0.036133 q 0.025391,0.142578 0.068359,0.213867 0.042969,0.07031 0.1308594,0.117187 0.088867,0.04687 0.194336,0.04687 0.1220703,0 0.1923828,-0.06445 0.071289,-0.06445 0.071289,-0.152343 0,-0.04883 -0.027344,-0.09863 -0.026367,-0.0498 -0.083008,-0.09277 -0.038086,-0.0293 -0.2080078,-0.124023 -0.1699219,-0.0957 -0.2421875,-0.152344 -0.071289,-0.05664 -0.1083985,-0.125 -0.037109,-0.06836 -0.037109,-0.150391 0,-0.142578 0.109375,-0.245117 0.109375,-0.103515 0.2783204,-0.103515 0.1054687,0 0.2236328,0.05176 0.054687,0.02441 0.077148,0.02441 0.025391,0 0.041016,-0.01465 0.016602,-0.01563 0.026367,-0.06152 z M 6.6455078,24 6.1660156,25.416016 H 6.0878906 L 6.5673828,24 Z m -0.03125,0.06445 h 0.359375 l 0.8095703,0.993164 v -0.763672 q 0,-0.12207 -0.027344,-0.152343 -0.036133,-0.04102 -0.1142578,-0.04102 h -0.045899 v -0.03613 h 0.4609375 v 0.03613 h -0.046875 q -0.083984,0 -0.1191406,0.05078 -0.021484,0.03125 -0.021484,0.142578 v 1.116211 H 7.8339844 L 6.9609375,24.34375 v 0.81543 q 0,0.12207 0.026367,0.152343 0.037109,0.04102 0.1142578,0.04102 h 0.046875 v 0.03613 H 6.6875 v -0.03613 h 0.045898 q 0.084961,0 0.1201172,-0.05078 Q 6.875,25.270508 6.875,25.15918 v -0.920899 q -0.057617,-0.06738 -0.087891,-0.08887 -0.029297,-0.02148 -0.086914,-0.04004 -0.02832,-0.0088 -0.085937,-0.0088 z m 1.5048828,1.324219 v -0.03613 h 0.049805 q 0.083984,0 0.1191406,-0.05371 0.021484,-0.03223 0.021484,-0.144531 v -0.855469 q 0,-0.124023 -0.027344,-0.155273 -0.038086,-0.04297 -0.1132813,-0.04297 h -0.049805 v -0.03613 h 0.5390625 q 0.296875,0 0.4511719,0.06738 0.1552734,0.06738 0.2490234,0.224609 0.094727,0.157227 0.094727,0.363282 0,0.276367 -0.1679687,0.461914 -0.1884766,0.207031 -0.5742188,0.207031 z m 0.3779297,-0.0957 q 0.1240235,0.02734 0.2080078,0.02734 0.2265625,0 0.3759766,-0.159179 0.1494141,-0.15918 0.1494141,-0.431641 0,-0.274414 -0.1494141,-0.432617 -0.1494141,-0.158203 -0.3837891,-0.158203 -0.087891,0 -0.2001953,0.02832 z M 10.446289,24.03418 v 0.458007 h -0.03613 q -0.01758,-0.131835 -0.06348,-0.20996 -0.04492,-0.07813 -0.128906,-0.124024 -0.08398,-0.0459 -0.173828,-0.0459 -0.101563,0 -0.167969,0.0625 -0.06641,0.06152 -0.06641,0.140625 0,0.06055 0.04199,0.110351 0.06055,0.07324 0.288086,0.195313 0.185547,0.09961 0.25293,0.15332 0.06836,0.05273 0.104492,0.125 0.03711,0.07227 0.03711,0.151367 0,0.150391 -0.117188,0.259766 -0.116211,0.108398 -0.299805,0.108398 -0.05762,0 -0.108398,-0.0088 -0.03027,-0.0049 -0.125977,-0.03516 -0.09473,-0.03125 -0.120117,-0.03125 -0.02441,0 -0.03906,0.01465 -0.01367,0.01465 -0.02051,0.06055 h -0.03613 v -0.454101 h 0.03613 q 0.02539,0.142578 0.06836,0.213867 0.04297,0.07031 0.13086,0.117187 0.08887,0.04687 0.194335,0.04687 0.122071,0 0.192383,-0.06445 0.07129,-0.06445 0.07129,-0.152343 0,-0.04883 -0.02734,-0.09863 -0.02637,-0.0498 -0.08301,-0.09277 -0.03809,-0.0293 -0.208008,-0.124023 -0.169921,-0.0957 -0.242187,-0.152344 -0.07129,-0.05664 -0.108398,-0.125 -0.03711,-0.06836 -0.03711,-0.150391 0,-0.142578 0.109375,-0.245117 0.109375,-0.103515 0.27832,-0.103515 0.105469,0 0.223633,0.05176 0.05469,0.02441 0.07715,0.02441 0.02539,0 0.04102,-0.01465 0.0166,-0.01563 0.02637,-0.06152 z m 1.341797,0.988281 0.03223,0.0068 -0.113282,0.359375 h -1.02539 v -0.03613 h 0.0498 q 0.08398,0 0.120118,-0.05469 0.02051,-0.03125 0.02051,-0.144532 v -0.854492 q 0,-0.124023 -0.02734,-0.155273 -0.03809,-0.04297 -0.113282,-0.04297 h -0.0498 v -0.03613 h 0.599609 v 0.03613 q -0.105469,-9.77e-4 -0.148437,0.01953 -0.04199,0.02051 -0.05762,0.05176 -0.01563,0.03125 -0.01563,0.149414 v 0.832031 q 0,0.08105 0.01563,0.111328 0.01172,0.02051 0.03613,0.03027 0.02441,0.0098 0.152344,0.0098 h 0.09668 q 0.152343,0 0.213867,-0.02246 0.06152,-0.02246 0.112304,-0.0791 0.05078,-0.05762 0.101563,-0.180664 z m 0.120117,-0.981445 V 24 q 0.148438,0.07324 0.24707,0.172852 0.139649,0.142578 0.215821,0.33496 0.07617,0.191407 0.07617,0.399415 0,0.302734 -0.149414,0.551757 -0.148438,0.25 -0.389649,0.357422 v -0.03613 q 0.120117,-0.06738 0.197266,-0.182617 0.07813,-0.114258 0.115234,-0.291015 0.03809,-0.177735 0.03809,-0.370118 0,-0.208007 -0.03223,-0.379882 -0.02442,-0.134766 -0.06152,-0.215821 -0.03613,-0.08105 -0.09668,-0.15625 -0.06055,-0.0752 -0.160156,-0.143554 z"
       id="text3"
       style="font-size:2px;font-family:'Times New Roman';-inkscape-font-specification:'Times New Roman, ';display:inline;fill:#bfbfbf;stroke-width:0.264583"
       inkscape:label="text2 - path"
       aria-label="(NDS/NDSL)" /><path
       style="font-size:3px;font-family:'Times New Roman';-inkscape-font-specification:'Times New Roman, ';display:inline;fill:#bfbfbf;stroke-width:0.264583"
       d="M 3.4760742,23.583008 H 2.9458008 L 2.2734375,22.654297 q -0.074707,0.0029 -0.121582,0.0029 -0.019043,0 -0.041016,0 -0.021973,-0.0015 -0.04541,-0.0029 v 0.577148 q 0,0.1875 0.041016,0.23291 0.055664,0.06445 0.1669922,0.06445 h 0.077637 v 0.0542 H 1.5 v -0.0542 h 0.074707 q 0.1259766,0 0.1801758,-0.08203 0.030762,-0.04541 0.030762,-0.215332 V 21.94824 q 0,-0.1875 -0.041016,-0.23291 Q 1.6875,21.650879 1.574707,21.650879 H 1.5 v -0.0542 h 0.7236328 q 0.3164063,0 0.4658203,0.04687 0.1508789,0.04541 0.2548828,0.169922 0.1054688,0.123046 0.1054688,0.294433 0,0.183106 -0.1201172,0.317871 -0.1186523,0.134766 -0.3691406,0.19043 l 0.4101562,0.569824 q 0.140625,0.196289 0.2416992,0.260742 0.1010743,0.06445 0.2636719,0.08203 z M 2.0654297,22.562012 q 0.027832,0 0.04834,0.0015 0.020508,0 0.033691,0 0.2841797,0 0.4277344,-0.123047 0.1450195,-0.123047 0.1450195,-0.313477 0,-0.186035 -0.1171875,-0.301758 -0.1157226,-0.117187 -0.3076171,-0.117187 -0.084961,0 -0.2299805,0.02783 z m 1.7036133,0.18457 q -0.00146,0.298828 0.1450195,0.46875 0.1464844,0.169922 0.3442383,0.169922 0.1318359,0 0.2285156,-0.07178 0.098144,-0.07324 0.1640625,-0.249024 l 0.04541,0.0293 q -0.030762,0.200684 -0.178711,0.366211 -0.1479492,0.164062 -0.3706054,0.164062 -0.2416993,0 -0.4145508,-0.1875 -0.1713867,-0.188964 -0.1713867,-0.506836 0,-0.344238 0.1757812,-0.536132 0.1772461,-0.19336 0.4438477,-0.19336 0.2255859,0 0.3706054,0.149414 0.1450196,0.14795 0.1450196,0.396973 z m 0,-0.08496 h 0.6210937 q -0.00732,-0.128906 -0.030762,-0.181641 -0.036621,-0.08203 -0.1098633,-0.128906 -0.071777,-0.04687 -0.1508789,-0.04687 -0.121582,0 -0.2182617,0.09521 -0.095215,0.09375 -0.1113278,0.262207 z m 1.0371093,-0.42041 H 5.4375 v 0.0542 H 5.396484 q -0.057129,0 -0.087891,0.02783 -0.029297,0.02783 -0.029297,0.07471 0,0.05127 0.030762,0.121582 l 0.3120117,0.741211 0.3134766,-0.769043 q 0.033691,-0.08203 0.033691,-0.124512 0,-0.02051 -0.011719,-0.03369 -0.016113,-0.02197 -0.041016,-0.0293 -0.024902,-0.0088 -0.1010742,-0.0088 V 22.2412 H 6.253418 v 0.0542 q -0.076172,0.0059 -0.1054688,0.03076 -0.05127,0.04395 -0.092285,0.146484 L 5.5795898,23.624023 H 5.5195312 L 5.0405273,22.491699 q -0.032227,-0.0791 -0.061523,-0.112793 -0.029297,-0.03516 -0.074707,-0.05859 -0.024902,-0.01318 -0.098145,-0.0249 z M 7.03125,22.20166 q 0.3046875,0 0.4892578,0.231445 0.1567383,0.197754 0.1567383,0.454102 0,0.180176 -0.086426,0.364746 -0.086426,0.18457 -0.2387695,0.27832 -0.1508789,0.09375 -0.3369141,0.09375 -0.3032226,0 -0.4819336,-0.241699 -0.1508789,-0.203613 -0.1508789,-0.457031 0,-0.18457 0.09082,-0.366211 0.092285,-0.183105 0.2416992,-0.269531 0.1494141,-0.08789 0.3164063,-0.08789 z m -0.04541,0.09521 q -0.077637,0 -0.1567382,0.04687 -0.077637,0.04541 -0.1259766,0.161133 -0.04834,0.115722 -0.04834,0.297363 0,0.292969 0.1157226,0.505371 0.1171875,0.212403 0.3076172,0.212403 0.1420898,0 0.234375,-0.117188 Q 7.4047852,23.285645 7.4047852,23 q 0,-0.357422 -0.1538086,-0.5625 Q 7.1469727,22.296875 6.9858398,22.296875 Z M 8.3364258,21.5 v 1.779785 q 0,0.125977 0.017578,0.166992 0.019043,0.04102 0.057129,0.06299 0.038086,0.02051 0.1420899,0.02051 v 0.05273 H 7.8955078 v -0.05273 q 0.092285,0 0.1259766,-0.01904 0.033691,-0.01904 0.052734,-0.06299 0.019043,-0.04395 0.019043,-0.168457 v -1.21875 q 0,-0.227051 -0.010254,-0.27832 -0.010254,-0.05273 -0.033691,-0.07178 -0.021973,-0.01904 -0.057129,-0.01904 -0.038086,0 -0.09668,0.02344 L 7.8706055,21.664062 8.2705078,21.5 Z m 1.5483402,0.741211 v 0.812988 q 0,0.23291 0.01025,0.285645 0.01172,0.05127 0.03516,0.07178 0.0249,0.02051 0.05713,0.02051 0.04541,0 0.102539,-0.0249 l 0.02051,0.05127 -0.401367,0.165527 h -0.06592 v -0.284179 q -0.1728521,0.1875 -0.2636724,0.23584 -0.09082,0.04834 -0.1918945,0.04834 -0.112793,0 -0.1962891,-0.06445 -0.082031,-0.06592 -0.1142578,-0.168457 -0.032227,-0.102539 -0.032227,-0.290039 v -0.599121 q 0,-0.09521 -0.020508,-0.131836 -0.020508,-0.03662 -0.061523,-0.05566 -0.039551,-0.02051 -0.1450195,-0.01904 v -0.0542 h 0.4702148 v 0.897949 q 0,0.1875 0.064453,0.246094 0.065918,0.05859 0.1582031,0.05859 0.062988,0 0.1420898,-0.03955 0.080566,-0.03955 0.1904296,-0.150879 v -0.760254 q 0,-0.114258 -0.04248,-0.153809 -0.04102,-0.04102 -0.1728514,-0.04395 v -0.0542 z m 0.713379,-0.440918 v 0.440918 h 0.313476 v 0.102539 h -0.313476 v 0.870117 q 0,0.130371 0.03662,0.175781 0.03809,0.04541 0.09668,0.04541 0.04834,0 0.09375,-0.0293 0.04541,-0.03076 0.07031,-0.08936 h 0.05713 q -0.05127,0.143555 -0.14502,0.216797 -0.09375,0.07178 -0.193359,0.07178 -0.06738,0 -0.131836,-0.03662 -0.06445,-0.03809 -0.09521,-0.106933 -0.03076,-0.07031 -0.03076,-0.215332 v -0.90234 h -0.2124 v -0.04834 q 0.08057,-0.03223 0.164063,-0.108398 0.08496,-0.07764 0.150878,-0.183106 0.03369,-0.05566 0.09375,-0.203613 z M 11.383301,21.5 q 0.06152,0 0.104004,0.04395 0.04395,0.04248 0.04395,0.104004 0,0.06152 -0.04395,0.105469 -0.04248,0.04395 -0.104004,0.04395 -0.06152,0 -0.105469,-0.04395 -0.04395,-0.04395 -0.04395,-0.105469 0,-0.06152 0.04248,-0.104004 Q 11.320313,21.5 11.383301,21.5 Z m 0.121582,0.70166 v 1.078125 q 0,0.125977 0.01758,0.168457 0.01904,0.04102 0.0542,0.06152 0.03662,0.02051 0.131836,0.02051 v 0.05273 h -0.651855 v -0.05273 q 0.09814,0 0.131836,-0.01904 0.03369,-0.01904 0.05273,-0.06299 0.02051,-0.04395 0.02051,-0.168457 v -0.51709 q 0,-0.218261 -0.01318,-0.282715 -0.01025,-0.04687 -0.03223,-0.06445 -0.02197,-0.01904 -0.06006,-0.01904 -0.04102,0 -0.09961,0.02197 l -0.02051,-0.05273 0.404297,-0.164063 z m 1.026855,0 q 0.304688,0 0.489258,0.231445 0.156738,0.197754 0.156738,0.454102 0,0.180176 -0.08642,0.364746 -0.08643,0.18457 -0.23877,0.27832 -0.150879,0.09375 -0.336914,0.09375 -0.303223,0 -0.481934,-0.241699 -0.150878,-0.203613 -0.150878,-0.457031 0,-0.18457 0.09082,-0.366211 0.09229,-0.183105 0.241699,-0.269531 0.149414,-0.08789 0.316406,-0.08789 z m -0.04541,0.09521 q -0.07764,0 -0.156738,0.04687 -0.07764,0.04541 -0.125977,0.161133 -0.04834,0.115722 -0.04834,0.297363 0,0.292969 0.115723,0.505371 0.117188,0.212403 0.307617,0.212403 0.14209,0 0.234375,-0.117188 0.09228,-0.117187 0.09228,-0.402832 0,-0.357422 -0.153808,-0.5625 -0.104004,-0.140625 -0.265137,-0.140625 z m 1.280274,0.188965 q 0.235839,-0.28418 0.449707,-0.28418 0.109863,0 0.188964,0.05566 0.0791,0.0542 0.125977,0.180176 0.03223,0.08789 0.03223,0.269531 v 0.572754 q 0,0.127442 0.02051,0.172852 0.01611,0.03662 0.05127,0.05713 0.03662,0.02051 0.133301,0.02051 v 0.05273 H 14.10498 v -0.05273 h 0.02783 q 0.09375,0 0.130371,-0.02783 0.03809,-0.0293 0.05273,-0.08496 0.0059,-0.02197 0.0059,-0.137695 v -0.549316 q 0,-0.183106 -0.04834,-0.265137 -0.04687,-0.0835 -0.159668,-0.0835 -0.174317,0 -0.347168,0.19043 v 0.707519 q 0,0.136231 0.01611,0.168457 0.02051,0.04248 0.05566,0.06299 0.03662,0.01904 0.146484,0.01904 v 0.05273 h -0.663574 v -0.05273 h 0.0293 q 0.102539,0 0.137695,-0.05127 0.03662,-0.05273 0.03662,-0.199219 V 22.78173 q 0,-0.241699 -0.01172,-0.294433 -0.01025,-0.05273 -0.03369,-0.07178 -0.02197,-0.01904 -0.06006,-0.01904 -0.04102,0 -0.09815,0.02197 l -0.02197,-0.05273 0.404297,-0.164063 h 0.06299 z m 2.3833,-0.13916 v 0.881836 q 0,0.1875 0.04102,0.237304 0.0542,0.06445 0.14502,0.06445 h 0.121582 v 0.05273 h -0.80127 v -0.05273 h 0.06006 q 0.05859,0 0.106933,-0.0293 0.04834,-0.0293 0.06592,-0.0791 0.01904,-0.0498 0.01904,-0.193359 V 22.34668 h -0.260742 v -0.105469 h 0.260742 v -0.08789 q 0,-0.200683 0.06445,-0.339843 0.06445,-0.139161 0.196289,-0.224122 0.133301,-0.08643 0.298828,-0.08643 0.153809,0 0.282715,0.09961 0.08496,0.06592 0.08496,0.147949 0,0.04395 -0.03809,0.0835 -0.03809,0.03809 -0.08203,0.03809 -0.03369,0 -0.07178,-0.02344 -0.03662,-0.0249 -0.09082,-0.104004 -0.0542,-0.08057 -0.09961,-0.108399 -0.04541,-0.02783 -0.101074,-0.02783 -0.06738,0 -0.114258,0.03662 -0.04687,0.03516 -0.06738,0.111328 -0.02051,0.07471 -0.02051,0.388183 v 0.09668 H 16.4956 v 0.105469 z m 1.13086,-0.14502 q 0.304687,0 0.489258,0.231445 0.156738,0.197754 0.156738,0.454102 0,0.180176 -0.08643,0.364746 -0.08643,0.18457 -0.23877,0.27832 -0.150878,0.09375 -0.336914,0.09375 -0.303222,0 -0.481933,-0.241699 -0.150879,-0.203613 -0.150879,-0.457031 0,-0.18457 0.09082,-0.366211 0.09229,-0.183105 0.241699,-0.269531 0.149415,-0.08789 0.316407,-0.08789 z m -0.04541,0.09521 q -0.07764,0 -0.156739,0.04687 -0.07764,0.04541 -0.125976,0.161133 -0.04834,0.115722 -0.04834,0.297363 0,0.292969 0.115723,0.505371 0.117187,0.212403 0.307617,0.212403 0.14209,0 0.234375,-0.117188 0.09229,-0.117187 0.09229,-0.402832 0,-0.357422 -0.153809,-0.5625 -0.104004,-0.140625 -0.265136,-0.140625 z m 1.281738,-0.09521 v 0.301758 q 0.168457,-0.301758 0.345703,-0.301758 0.08057,0 0.133301,0.0498 0.05273,0.04834 0.05273,0.112793 0,0.05713 -0.03809,0.09668 -0.03809,0.03955 -0.09082,0.03955 -0.05127,0 -0.115723,-0.0498 -0.06299,-0.05127 -0.09375,-0.05127 -0.02637,0 -0.05713,0.0293 -0.06592,0.06006 -0.13623,0.197754 v 0.643066 q 0,0.111328 0.02783,0.168457 0.01904,0.03955 0.06738,0.06592 0.04834,0.02637 0.13916,0.02637 v 0.05273 h -0.687012 v -0.05273 q 0.102539,0 0.152344,-0.03223 0.03662,-0.02344 0.05127,-0.07471 0.0073,-0.0249 0.0073,-0.14209 v -0.52002 q 0,-0.234375 -0.01025,-0.27832 -0.0088,-0.04541 -0.03516,-0.06592 -0.0249,-0.02051 -0.06299,-0.02051 -0.04541,0 -0.102539,0.02197 l -0.01465,-0.05273 0.405761,-0.164063 z m 1.313965,1.381348 v -0.0542 h 0.07471 q 0.125976,0 0.178711,-0.08057 0.03223,-0.04834 0.03223,-0.216797 v -1.283203 q 0,-0.186035 -0.04102,-0.23291 -0.05713,-0.06445 -0.169922,-0.06445 h -0.07471 v -0.0542 h 0.808593 q 0.445313,0 0.676758,0.101074 0.23291,0.101074 0.373535,0.336914 0.14209,0.23584 0.14209,0.544922 0,0.414551 -0.251953,0.692871 -0.282715,0.310547 -0.861328,0.310547 z m 0.566894,-0.143555 q 0.186035,0.04102 0.312012,0.04102 0.339844,0 0.563965,-0.23877 0.224121,-0.238769 0.224121,-0.647461 0,-0.411621 -0.224121,-0.648926 -0.224121,-0.237304 -0.575684,-0.237304 -0.131836,0 -0.300293,0.04248 z m 2.923828,-1.888183 v 0.687011 h -0.0542 q -0.02637,-0.197754 -0.09521,-0.314941 -0.06738,-0.117188 -0.193359,-0.186035 -0.125977,-0.06885 -0.260742,-0.06885 -0.152344,0 -0.251953,0.09375 -0.09961,0.09229 -0.09961,0.210938 0,0.09082 0.06299,0.165527 0.09082,0.109863 0.432129,0.292969 0.278321,0.149414 0.379395,0.22998 0.102539,0.0791 0.156738,0.1875 0.05566,0.108399 0.05566,0.227051 0,0.225586 -0.175781,0.389648 -0.174316,0.162598 -0.449707,0.162598 -0.08643,0 -0.162598,-0.01318 -0.04541,-0.0073 -0.188965,-0.05273 -0.142089,-0.04687 -0.180175,-0.04687 -0.03662,0 -0.05859,0.02197 -0.02051,0.02197 -0.03076,0.09082 h -0.0542 v -0.681152 h 0.0542 q 0.03809,0.213867 0.102539,0.3208 0.06445,0.105469 0.196289,0.175782 0.133301,0.07031 0.291504,0.07031 0.183106,0 0.288574,-0.09668 0.106934,-0.09668 0.106934,-0.228515 0,-0.07324 -0.04102,-0.147949 -0.03955,-0.07471 -0.124511,-0.139161 -0.05713,-0.04395 -0.312012,-0.186035 -0.254883,-0.143554 -0.363281,-0.228515 -0.106934,-0.08496 -0.162598,-0.1875 -0.05566,-0.102539 -0.05566,-0.225586 0,-0.213867 0.164063,-0.367676 0.164062,-0.155273 0.41748,-0.155273 0.158203,0 0.335449,0.07764 0.08203,0.03662 0.115723,0.03662 0.03809,0 0.06152,-0.02197 0.0249,-0.02344 0.03955,-0.09229 z"
       id="text4"
       inkscape:label="text1 - path"
       aria-label="Revolution for DS" /></g></svg>
