<?xml version="1.0" encoding="UTF-8" standalone="no"?>
<!-- Created with Inkscape (http://www.inkscape.org/) by Marsupilami -->
<svg
   xmlns:svg="http://www.w3.org/2000/svg"
   xmlns="http://www.w3.org/2000/svg"
   version="1.0"
   width="1024"
   height="463"
   viewBox="0 0 76.46125 34.576248"
   id="svg6443">
  <defs
     id="defs6445" />
  <g
     transform="translate(-398.91223,-283.64549)"
     id="layer1">
    <path
       d="M 472.65223,283.80049 C 473.10973,283.80049 473.55598,283.91799 473.99223,284.15174 C 474.42723,284.38674 474.76723,284.72299 475.00973,285.15924 C 475.25223,285.59549 475.37348,286.05174 475.37348,286.52549 C 475.37348,286.99424 475.25473,287.44549 475.01473,287.87924 C 474.77598,288.31174 474.43973,288.64799 474.00848,288.88799 C 473.57598,289.12674 473.12473,289.24674 472.65223,289.24674 C 472.18098,289.24674 471.72973,289.12674 471.29723,288.88799 C 470.86598,288.64799 470.52973,288.31174 470.28848,287.87924 C 470.04848,287.44549 469.92723,286.99424 469.92723,286.52549 C 469.92723,286.05174 470.04973,285.59549 470.29348,285.15924 C 470.53848,284.72299 470.87848,284.38674 471.31348,284.15174 C 471.74973,283.91799 472.19598,283.80049 472.65223,283.80049 z M 472.65223,284.25049 C 472.26973,284.25049 471.89723,284.34924 471.53598,284.54549 C 471.17348,284.74174 470.88973,285.02174 470.68598,285.38674 C 470.48098,285.75049 470.37848,286.13049 470.37848,286.52549 C 470.37848,286.91674 470.47973,287.29299 470.67973,287.65299 C 470.88098,288.01299 471.16223,288.29299 471.52348,288.49424 C 471.88348,288.69549 472.26098,288.79549 472.65223,288.79549 C 473.04473,288.79549 473.42223,288.69549 473.78223,288.49424 C 474.14348,288.29299 474.42348,288.01299 474.62348,287.65299 C 474.82348,287.29299 474.92348,286.91674 474.92348,286.52549 C 474.92348,286.13049 474.82098,285.75049 474.61848,285.38674 C 474.41473,285.02174 474.13223,284.74174 473.76848,284.54549 C 473.40473,284.34924 473.03348,284.25049 472.65223,284.25049 z M 471.45723,288.02674 L 471.45723,285.10049 L 472.46473,285.10049 C 472.80973,285.10049 473.05848,285.12799 473.21348,285.18174 C 473.36723,285.23549 473.48973,285.33049 473.58223,285.46549 C 473.67348,285.59924 473.71848,285.74174 473.71848,285.89424 C 473.71848,286.10799 473.64223,286.29424 473.48848,286.45299 C 473.33598,286.61174 473.13223,286.70049 472.87973,286.71924 C 472.98223,286.76299 473.06598,286.81424 473.12848,286.87424 C 473.24598,286.98924 473.38973,287.18299 473.56098,287.45424 L 473.91848,288.02674 L 473.34473,288.02674 L 473.08348,287.56549 C 472.87848,287.20299 472.71348,286.97549 472.58723,286.88424 C 472.50098,286.81799 472.37473,286.78424 472.20848,286.78549 L 471.93098,286.78549 L 471.93098,288.02674 L 471.45723,288.02674 z M 471.93098,286.37924 L 472.50473,286.37924 C 472.77973,286.37924 472.96598,286.33924 473.06598,286.25674 C 473.16598,286.17549 473.21598,286.06799 473.21598,285.93424 C 473.21598,285.84799 473.19223,285.77049 473.14348,285.70299 C 473.09598,285.63424 473.02973,285.58424 472.94348,285.55049 C 472.85848,285.51674 472.69973,285.50049 472.46848,285.50049 L 471.93098,285.50049 L 471.93098,286.37924"
       style="fill:#000000;fill-opacity:1;fill-rule:evenodd;stroke:none"
       id="path17131" />
    <path
       d="M 398.91223,283.64924 L 398.91223,318.15924 L 447.56098,318.15924 L 451.57848,309.47799 L 455.65973,318.22174 L 467.83098,318.22174 L 467.83098,283.64549 L 398.91223,283.64924"
       style="fill:#ed1c24;fill-opacity:1;fill-rule:nonzero;stroke:none"
       id="path17137" />
    <path
       d="M 33.875,6.25 C 29.577501,6.25 26.875,8.215 26.875,11.5625 C 26.875001,15.3825 30.67625,16.44875 33.625,17.28125 C 36.696248,18.148751 37.75,19.14 37.75,20.625 C 37.75,23.099999 35.24,23.5 33.6875,23.5 C 31.555002,23.5 29.815,22.905 28.09375,21.84375 L 26.625,24.3125 C 28.79625,25.6525 31.0275,26.28125 33.6875,26.28125 C 38.128752,26.281249 41.09375,23.96875 41.09375,20.40625 C 41.093749,16.4275 37.4875,15.35375 34.46875,14.5 C 31.393752,13.63 30.21875,12.89 30.21875,11.40625 C 30.21875,9.1574997 32.95,8.9375 33.9375,8.9375 C 35.48625,8.9374997 37.45875,9.46 38.625,10.0625 L 39.875,7.625 C 38.300001,6.8112501 35.8925,6.25 33.875,6.25 z M 8.375,6.5625 L 8.375,25.78125 L 11.28125,25.78125 L 11.28125,9.375 L 16.25,9.375 C 17.90625,9.3750002 19.68875,10.245 19.71875,12.3125 C 19.743751,14.1525 18.36,15.3075 16.03125,15.40625 L 14.21875,15.40625 L 20.125,25.8125 L 23.5625,25.78125 L 18.9375,17.625 C 21.5625,16.645001 22.8425,14.49 22.8125,12.28125 C 22.765,8.9300001 20.125,6.5625 16.40625,6.5625 L 8.375,6.5625 z M 51.03125,6.75 L 42.84375,25.84375 L 46.4375,25.84375 L 52.65625,10.875 L 59.15625,25.84375 L 62.75,25.8125 L 54.375,6.75 L 51.03125,6.75 z "
       transform="translate(398.91223,283.64549)"
       style="fill:#ffffff;fill-opacity:1;fill-rule:nonzero;stroke:none"
       id="path17139" />
  </g>
</svg>
